<svg xmlns="http://www.w3.org/2000/svg" width="596" height="450" viewBox="0 0 596 450">
  <defs>
    <style>
      .cls-1 {
        fill: #222;
        fill-rule: evenodd;
      }
    </style>
  </defs>
  <path id="M" class="cls-1" d="M279.889,203.064a3.4,3.4,0,0,1,.185,2.165,0.669,0.669,0,0,1-.757.327,1.137,1.137,0,0,0-.866.074,1.491,1.491,0,0,1-.233.849,0.7,0.7,0,0,0,.02.739q-0.068,3.327,0,6.587t0.249,6.478q0.046,5.669.367,10.916t0.62,10.808q0.222,2.6.39,5.07t0.281,4.817q0.444,5.2.835,10.266t0.834,10.266l1.556,18.186q0.4,3.712,1.063,7.324t1.063,7.324q0.583,4.835,1.248,9.489t1.5,9.38q1.641,7.969,3.229,15.818a114.687,114.687,0,0,0,4.238,15.383q1.341,4.509,2.906,8.475a59.182,59.182,0,0,0,3.916,8.04,29.527,29.527,0,0,0,12.151,11.522,17.114,17.114,0,0,1,3.523,1.923,29.046,29.046,0,0,0,3.632,2.175l1.265,0.5,1.264,0.5,1.262-.544a1.585,1.585,0,0,1-.688-0.9,4.244,4.244,0,0,1-1.192-.683c-0.316-.266-0.63-0.528-0.94-0.792q-0.8-1.155-1.413-2.234a23.031,23.031,0,0,1-1.16-2.343,50.953,50.953,0,0,1-3.393-8.564q-1.293-4.381-2.636-8.891-2.115-8.368-3.484-16.756t-2.618-16.83q-0.918-5.6-1.413-10.915t-1.052-10.77q-0.483-4.584-.959-9.165t-0.958-9.165l-2.223-25.98q-0.115-2.349-.336-4.943t-0.336-4.944c-0.076-1.566-.093-3.1-0.046-4.62s0.029-3.057-.046-4.619q-0.041-1.478-.2-2.905c-0.11-.949-0.18-1.914-0.205-2.905q-0.087-5.048-.4-10.3t-0.4-10.3a1.5,1.5,0,0,0-.166-1.426,1.476,1.476,0,0,1-.165-1.425,19.345,19.345,0,0,1,.01-3.446c0.107-1.141.193-2.329,0.263-3.556a32.371,32.371,0,0,0-.027-3.88,31.929,31.929,0,0,1-.026-3.879,37.645,37.645,0,0,0-.207-3.952,13.07,13.07,0,0,1,.154-3.807q0.173-3.065.04-6.154a60.408,60.408,0,0,1,.041-6.153,4.883,4.883,0,0,0-.366-2.237,2.318,2.318,0,0,1,.5-2.311l-0.109-.252a2,2,0,0,1-.474-2.49,3.532,3.532,0,0,0,.391-2.563,6,6,0,0,1,0-2.093c0.118-.649.235-1.3,0.357-1.95-0.027-.984-0.037-1.929-0.024-2.833s0-1.843-.025-2.833a8.387,8.387,0,0,0,0-1.046,1.7,1.7,0,0,1,.107-0.8,12.011,12.011,0,0,1,.138-2.454,12.336,12.336,0,0,0,.139-2.455c0.047-.815.091-1.633,0.139-2.454s0.091-1.634.139-2.454q0.246-2.2.479-4.1t0.334-3.736l0.417-7.363a14.186,14.186,0,0,1,.228-2.942,14.3,14.3,0,0,0,.228-2.942,13.534,13.534,0,0,1,.3-3.122,13.709,13.709,0,0,0,.3-3.123q0.39-2.56.656-5.072t0.657-5.072a31.338,31.338,0,0,0,.461-3.791,30.4,30.4,0,0,1,.461-3.79q0.711-3.9,1.174-7.69a73.957,73.957,0,0,1,1.282-7.437,5.505,5.505,0,0,1,.518-2.618,5.571,5.571,0,0,0,.518-2.618q0.244-2.2.676-4.332a22.875,22.875,0,0,1,1.146-3.936l0.574-1.445q0.645-2.67,1.342-5.218a31.188,31.188,0,0,1,1.956-5.183q0.825-1.549,1.527-3.053c0.468-1,.974-2.015,1.527-3.053l1.364-3.431c0.43-1.084.883-2.224,1.363-3.432a46.993,46.993,0,0,0,3.159-7.947l3.119-9.426q0.069-1.222.139-2.454t0.139-2.454a4.074,4.074,0,0,0-1.415-3.281q-3.656-2.914-9.461-2.506a0.68,0.68,0,0,0-.757.326q-1.3,1.162-2.648,2.189a6.488,6.488,0,0,0-2.069,2.838,0.745,0.745,0,0,1-.416-0.27,0.79,0.79,0,0,0-.415-0.27,22.5,22.5,0,0,0,1.908-2.17,23.56,23.56,0,0,1,1.908-2.17,0.813,0.813,0,0,0-.47-0.4,14.78,14.78,0,0,0-4.034,3.834q-1.4,3-2.928,6.052t-3.18,6.16q-3.123,7.337-6.483,14.468t-6.482,14.468L281.469,84.9q-0.575,1.448-1.2,2.763t-1.2,2.764q-0.684,1.193.906,1.405a0.579,0.579,0,0,0-.29-0.324,1.061,1.061,0,0,1-.4-0.577,4.457,4.457,0,0,1,1.336.322,2.959,2.959,0,0,1-.255-0.938,4.234,4.234,0,0,0-.363-1.19,4.22,4.22,0,0,1,.957.485q0.234,0.2.7,0.594a4.837,4.837,0,0,0-1.044,1.049,0.989,0.989,0,0,1-.827,1.554,1.577,1.577,0,0,1-.069,1.227A0.813,0.813,0,0,0,279.107,94a0.777,0.777,0,0,1-.613-0.035,0.741,0.741,0,0,1-.416-0.27,0.8,0.8,0,0,0-.416-0.27c-0.358.557-.743,1.172-1.15,1.843a14.03,14.03,0,0,0-1.042,2.1L267.6,112.433a17.74,17.74,0,0,0-1.114,2.276,10.865,10.865,0,0,1-.97,1.915,1.853,1.853,0,0,0,1.48-.039l-0.436-1.01a0.8,0.8,0,0,1,.416.27,0.742,0.742,0,0,0,.416.27,0.242,0.242,0,0,0,.361.143l-1.292,3.251a1.087,1.087,0,0,1-.849-0.233,2.772,2.772,0,0,0-1.21-.376,3.408,3.408,0,0,1-.935,1.3,3.48,3.48,0,0,0-.936,1.3q-2.338,4.305-4.727,8.473t-4.727,8.474q-3.922,6.18-7.534,12.377T237.9,162.952q-3.775,5.823-7.608,11.512t-8.078,11.116q-3.206,4.377-6.513,8.495t-6.732,7.991q-5.4,6.22-11.126,11.682a86.447,86.447,0,0,1-12.5,9.88,49.285,49.285,0,0,1-8.9,5.036,39.771,39.771,0,0,1-9.883,2.765,6.846,6.846,0,0,1-6.754-2.476,84.32,84.32,0,0,1-7.748-11.026Q148.685,212.2,145.712,206q-3.519-7.462-6.4-15.2t-5.394-15.633q-2-6.021-3.744-12.154t-3.744-12.155a38.285,38.285,0,0,0-1.546-5.32q-0.963-2.573-1.907-5.463a1.6,1.6,0,0,0-.94-0.792,3.189,3.189,0,0,1-1.38-3.9c0.287-.722-0.017-1.189-0.905-1.405q-3.4-.929-6.807-1.555t-6.841-.941a3.4,3.4,0,0,0-3.6,2.75,19.591,19.591,0,0,0-1.074,3.756,19.843,19.843,0,0,1-1.075,3.756q-1.359,6.577-3,12.819t-3.112,12.566q-1.177,5.6-2.52,10.814t-2.268,10.706q-1.281,7.441-2.62,14.749t-2.368,14.64q-1.428,7.8-2.655,15.362t-2.15,15.144q-1.064,7.945-1.806,15.6t-1.554,15.487q-0.634,6.86-1.2,13.536T74.15,306.592q-0.5,4.409-.756,9.006t-0.647,9.258q-0.168,7.257-.346,14.816T72.163,354.74l0.236,8.878q-0.07,3.321.123,6.532t0.375,6.423q0.185,3.212.627,6.315t0.627,6.314q0.511,3.967,1.028,7.938a55.389,55.389,0,0,0,1.642,7.972q0.942,2.885,2.033,5.409a9.537,9.537,0,0,0,3.943,4.286q1.659,1.082,3.253,2.339a13.434,13.434,0,0,0,3.4,1.977q2.02,1.219,4.119,2.265a13.417,13.417,0,0,1,3.723,2.735,17.176,17.176,0,0,0,3.434,2.41,4.285,4.285,0,0,0,1.336.322q2.706,0.025,2.846-2.424c0.307-1.133.555-2.185,0.733-3.16a4.239,4.239,0,0,0-1.108-3.264,2.853,2.853,0,0,0-1.771-1.331,4.94,4.94,0,0,1-1.806-.718c-1.279-.646-1.979-1.345-2.1-2.088q-0.372-4.331-.993-8.552t-0.884-8.3q-0.089-5.055-.293-10.051t-0.04-10.159a137.321,137.321,0,0,1,.076-14.4q0.171-3.071.276-5.956t0.276-5.955q-0.046-3.573.165-7.255T97.6,335.99q0.165-5.164.536-10.558t0.536-10.558q0.173-3.063.149-5.9a50.914,50.914,0,0,1,.258-5.648q0.208-3.682.543-7.418t0.651-7.165l1.161-13.97q0.35-4.036.577-8.031t0.83-8.14q0.351-4.038.759-7.96t0.867-7.707q0.105-1.84.137-3.5a13.616,13.616,0,0,1,.5-3.358,29,29,0,0,1,.535-2.924,4.449,4.449,0,0,0-.332-2.851l0.144-.361a31.21,31.21,0,0,0,1.074-3.756q1.071-5.849,1.814-12.455c0.117-.649.261-1.356,0.428-2.13a3.92,3.92,0,0,0-.294-2.417l0.143-.362,1-2.528q0.391-2.56.568-4.585a34.25,34.25,0,0,1,.676-4.332,11,11,0,0,0,.03-2.707c-0.071-.166-0.069-0.269.017-0.307s0.091-.137.018-0.307a10.1,10.1,0,0,0,.448-1.39,1.819,1.819,0,0,0-.057-1.173,3.575,3.575,0,0,1,.426-3.177,4.244,4.244,0,0,0,.683-1.192,7.783,7.783,0,0,0,.157-2.761,5.045,5.045,0,0,1,.661-2.979,0.244,0.244,0,0,0,.143-0.362c0.046-.815.07-1.573,0.067-2.273a4.527,4.527,0,0,1,.681-2.24,2.4,2.4,0,0,0,.141-1.407,4.9,4.9,0,0,1-.111-1.3,3.12,3.12,0,0,1,.179-0.975,3.206,3.206,0,0,0,.178-0.975,5.885,5.885,0,0,1,.827-1.554,5.292,5.292,0,0,1,.905,1.406q2,6.029,4.194,11.81a94.642,94.642,0,0,0,5.2,11.375q2.645,5.448,5.365,10.707a78.134,78.134,0,0,0,6.375,10.272,54.113,54.113,0,0,0,8.339,9.275A39.424,39.424,0,0,0,156.2,231.7q1.806,0.723,3.9,1.76t4.011,2.012q1.551,0.833,2.981,1.708t2.981,1.707a26.176,26.176,0,0,0,12.455,1.814,40.486,40.486,0,0,0,12.12-3.131,60.358,60.358,0,0,0,11.551-7.225q5.35-4.251,10.284-8.775,2.595-2.312,5.078-4.883t4.969-5.136q1.977-2.346,3.888-4.52t3.888-4.52q2.661-3.54,5.128-6.85t5.127-6.85q2.407-3.43,4.821-6.868t4.821-6.868q3.237-4.988,6.42-10.1t6.42-10.1q2.445-4.042,5.017-8.149t4.907-8.4a25.784,25.784,0,0,0,1.691-2.674,26.264,26.264,0,0,1,1.69-2.675,3.887,3.887,0,0,1,.9,1.406,2.226,2.226,0,0,1,.342-0.6,2.158,2.158,0,0,0,.341-0.6,8.087,8.087,0,0,1,.9-2.781,16.386,16.386,0,0,0,.276,2.725,3.256,3.256,0,0,1-.7,2.545,0.486,0.486,0,0,0-.287.723l-0.1,1.841a1.164,1.164,0,0,0,.344.45,1.25,1.25,0,0,1,.343.45l-0.287.723a0.777,0.777,0,0,0-.089.487,0.765,0.765,0,0,1-.089.488l-1.084-.431-0.252.109a1.048,1.048,0,0,0-.809,1.247,2.481,2.481,0,0,1-.087,1.534q-0.281,4.912-.682,9.872t-0.682,9.872a10.559,10.559,0,0,0,.113,2.346,10.766,10.766,0,0,1,.114,2.345c0.986-.023,1.481.311,1.482,1.008s0.024,1.336.076,1.912a19.357,19.357,0,0,1-.084,2.581,18.444,18.444,0,0,0-.085,2.581l0.218,0.5a2.141,2.141,0,0,1-.392,2.564c0.025,0.99.033,1.931,0.025,2.833s0,1.848.024,2.833c-0.023.412-.03,0.864-0.015,1.353s0.006,0.947-.015,1.353a2.415,2.415,0,0,0-.2,1.282,5.6,5.6,0,0,1,.057,1.173,2.225,2.225,0,0,1-.03,2.707,6.878,6.878,0,0,0,.131,2.039,7.172,7.172,0,0,1,.13,2.038,2.852,2.852,0,0,1-.794-0.106,3.388,3.388,0,0,0-.794-0.107q-0.43,1.084-.54.832a4.276,4.276,0,0,0-.032,1.66,4.417,4.417,0,0,1-.032,1.66,1.164,1.164,0,0,0,.343.45,1.248,1.248,0,0,1,.344.451A2.6,2.6,0,0,1,279.889,203.064ZM77.053,395.584a6.118,6.118,0,0,0,.364,1.19l-0.5.218q-0.763-1.77-.222-2.6-1.271-1.55-.222-2.6a12.954,12.954,0,0,1-.945-2.886c-0.052-.576-0.083-1.114-0.094-1.605a8.029,8.029,0,0,1,.159-1.715l0.361,0.144a25.833,25.833,0,0,0,.259,3.031,27.365,27.365,0,0,1,.259,3.031l0.222,2.6A6.493,6.493,0,0,1,77.053,395.584ZM281.691,87.5l-0.47-.4,0.758-.326-0.218-.5,0.143-.361a2.87,2.87,0,0,0,.651.468,3.436,3.436,0,0,1,.651.468,0.8,0.8,0,0,1-.4.47,2.143,2.143,0,0,0-.649.579c0.291,0.674.266,1.083-.069,1.227a1.564,1.564,0,0,1-1.227-.07l-0.218-.5a3.82,3.82,0,0,0,1.406-.905,0.243,0.243,0,0,1-.362-0.144h0Zm-17.986,34.993a4.162,4.162,0,0,0-.957-0.485,4.618,4.618,0,0,1,1.064-.31,4.284,4.284,0,0,0,1.064-.309l0.218,0.505a0.8,0.8,0,0,1-.4.47,0.793,0.793,0,0,0-.4.47,1.243,1.243,0,0,0-.359.9,0.639,0.639,0,0,1-.468.651q-0.144.364-1.623,0.4,1.11-2.274,2.45-1.954A2.034,2.034,0,0,1,263.705,122.493ZM80.584,253.832a4.555,4.555,0,0,0-.309-1.064q1.951,0.359.618,2.128a2.4,2.4,0,0,1-.426,3.176,3.255,3.255,0,0,1,.311,2.111,10.042,10.042,0,0,0-.3,2.076c-0.722-.287-1.046-0.344-0.975-0.178a3.734,3.734,0,0,1,.176-2.022,5.6,5.6,0,0,1,.79-1.987q-1.269-1.543.426-3.176A4.423,4.423,0,0,1,80.584,253.832ZM245.1,155.358a7.381,7.381,0,0,0-1.222,2.023,10.831,10.831,0,0,1-.971,1.915,1.317,1.317,0,0,1-.74.02,9.856,9.856,0,0,0-1.1-.124q1.044-1.046,1.963-2.043t1.71-1.935a3.626,3.626,0,0,1,1.762-2.855c-0.289-.67-0.164-1.075.376-1.21a2.189,2.189,0,0,0,1.208-.67,4.238,4.238,0,0,0-.322,1.336,0.791,0.791,0,0,1-.9.688,3.187,3.187,0,0,1-1.762,2.855h0Zm-25.218,36.615,0.217,0.5-1.945,1.737c-0.626.869-1.222,1.678-1.8,2.422s-1.177,1.555-1.8,2.422a4.1,4.1,0,0,1,1.185-2.457,11.788,11.788,0,0,1,2.413-2.387,2.184,2.184,0,0,1,1.728-2.241h0Zm60.833-39.4,0.07-1.227c1.057,0.143,1.251,1.06.583,2.742a14.426,14.426,0,0,0,0,2.093,15.366,15.366,0,0,1,0,2.093c-0.169.073-.269,0.07-0.307-0.017s-0.141-.089-0.306-0.018l-0.545-1.261a2.6,2.6,0,0,0,.033-1.661c-0.171-.623.2-1.031,1.116-1.229q-1.445-.57-0.653-1.515h0Zm-47.338,21.759a2.937,2.937,0,0,1-2.344,1.16,3.5,3.5,0,0,0,1.475-2.133,2.056,2.056,0,0,1,1.693-1.627c-0.2-.912.25-1.5,1.331-1.772a1.528,1.528,0,0,1-.97,1.915A4.047,4.047,0,0,1,233.378,174.331ZM86.729,217.06c-0.072-.165-0.278-0.179-0.614-0.035a3.469,3.469,0,0,0,.213-1.588,3.4,3.4,0,0,1,.213-1.588,3.626,3.626,0,0,1,.25-1.156,3.65,3.65,0,0,0,.25-1.155l-0.218-.505a6.363,6.363,0,0,0,.394-1.517A6.438,6.438,0,0,1,87.611,208c-0.071-.166.057-0.324,0.4-0.47l0.47,0.4a31.793,31.793,0,0,0-1.074,3.756,12.611,12.611,0,0,1-.674,5.379h0Zm208.712,132.1a8.191,8.191,0,0,1,.509,1.875L295.337,351a5.261,5.261,0,0,0-.4-1.623,2.376,2.376,0,0,1,.105-1.841,1.114,1.114,0,0,1-.579-0.648l-2.077-8.982,0.5-.218q0.471,2.491,1.076,4.924t1.076,4.924A5.142,5.142,0,0,0,295.441,349.16ZM90.568,190.561c-0.145-.335.021-0.406,0.5-0.217l0.218,0.5a4.243,4.243,0,0,0-.322,1.336,26.653,26.653,0,0,0-.426,3.177,15.779,15.779,0,0,1-.32,2.382q-0.25,1.161-.572,2.492a1.535,1.535,0,0,1-.178.974l-0.757.327-0.326-.757a14.94,14.94,0,0,0,.948-3.7q0.228-1.893.587-3.844l0.431-1.084a6.366,6.366,0,0,1,.213-1.589h0Zm9.961-41.11a3.989,3.989,0,0,1-.3,1.029q-0.9,2.785-1.557,5.76t-1.3,5.651a3.632,3.632,0,0,0-.267,1.462,3.671,3.671,0,0,1-.267,1.462,1.116,1.116,0,0,1-.648.579l-0.326-.757a15.416,15.416,0,0,1,.32-2.383,14.066,14.066,0,0,1,.681-2.239,17.093,17.093,0,0,1,.661-2.979q0.448-1.385.913-3.087,0.324-1.332.572-2.492c0.165-.768.358-1.6,0.572-2.491a1.637,1.637,0,0,1,.431-1.084,0.245,0.245,0,0,1,.361.144c0.146,0.339.3,0.469,0.47,0.4A3.879,3.879,0,0,0,100.529,149.451Zm-3.984,18.18q-0.642,2.676-1.287,5.344t-1.287,5.344a0.8,0.8,0,0,1-.035.614,1.119,1.119,0,0,1-.648.579l-0.326-.757a25.535,25.535,0,0,0,.7-3.593,24.822,24.822,0,0,1,.7-3.592l0.966-4.008a0.763,0.763,0,0,1,.27-0.416,0.77,0.77,0,0,0,.27-0.416l0.722,0.287a0.8,0.8,0,0,0-.035.614h0Zm7.311-31.288a24.721,24.721,0,0,1-.839,3.953c-0.409,1.374-.806,2.644-1.2,3.811a3.523,3.523,0,0,1-1.1,1.969,4.259,4.259,0,0,1,.228-2.942,18.28,18.28,0,0,0,1.094-3.016,25.976,25.976,0,0,1,.607-3.1,28.119,28.119,0,0,1,1.111-3.323A5.735,5.735,0,0,1,103.856,136.343Zm146.455,8.537a15.786,15.786,0,0,1,1.4-1.952,1.582,1.582,0,0,1,.792-0.94c0.335-.145.542-0.131,0.614,0.035,0.146,0.339.131,0.542-.035,0.613a17.8,17.8,0,0,0-1.114,2.276,7.332,7.332,0,0,1-1.222,2.024l-1.262.544-0.218-.5A14.1,14.1,0,0,1,250.311,144.88ZM75.432,380.718a10.45,10.45,0,0,1-.028,3.754,19.455,19.455,0,0,1-.558-7.542C75.014,378.251,75.212,379.513,75.432,380.718ZM225.421,183.3a15.834,15.834,0,0,1,1.134-1.537,14.779,14.779,0,0,0,1.133-1.536l1.01-.435c-0.553,1.038-1.059,2.056-1.527,3.053a8.154,8.154,0,0,1-2,2.657,0.742,0.742,0,0,1-.416-0.27,0.8,0.8,0,0,0-.416-0.27,6.385,6.385,0,0,0,1.079-1.662h0Zm50.706-82.325-0.574,1.444a1.139,1.139,0,0,1-1.623.4l1.435-3.612q1.952,0.359.762,1.767h0Zm26.308-58.037a1.183,1.183,0,0,1-.344-0.45,31.633,31.633,0,0,0,1.8-3.469,0.242,0.242,0,0,0,.362.143c0.165-.071.271-0.065,0.306,0.017s0.138,0.09.307,0.017c-0.287.722-.591,1.405-0.916,2.041s-0.678,1.443-1.059,2.4A1.949,1.949,0,0,0,302.435,42.937ZM74.567,364.479a1.113,1.113,0,0,1-1.049-1.044,17.631,17.631,0,0,1,.317-3.429q1.439,0.572.732,4.473h0ZM301.032,44.889a1.229,1.229,0,0,1,.45-0.344,0.347,0.347,0,0,1,.5-0.218l0.218,0.5a15.061,15.061,0,0,1-.7,1.5,15.557,15.557,0,0,0-.7,1.5,0.544,0.544,0,0,1-.433.037,0.576,0.576,0,0,0-.433.037,16.048,16.048,0,0,1,.644-2.672A1.2,1.2,0,0,0,301.032,44.889Zm7.6-15.7,0.722,0.287-0.5,1.264c-0.143.361-.311,0.784-0.5,1.264a0.779,0.779,0,0,1-.614-0.035,3.361,3.361,0,0,0-.974-0.178,26.874,26.874,0,0,0,1.871-2.6h0Zm-10.5,328.985-0.5.218-1.855-6.384,0.5-.218ZM291.74,331.9a20.012,20.012,0,0,1,.492,2.183l-0.505.218q-0.3-1.374-.6-2.435a17.9,17.9,0,0,1-.492-2.183l0.757-.326A9.936,9.936,0,0,0,291.74,331.9Zm-2.578-15.35,0.222,2.6-0.287.722a0.8,0.8,0,0,0-.47-0.4,10.753,10.753,0,0,0-.329-1.8,4.2,4.2,0,0,1-.076-1.912l0.252-.109a1.6,1.6,0,0,1,.688.9h0ZM305.146,36.38l0.861-2.167,1.084,0.431a6.461,6.461,0,0,1-.557,1.138,6.817,6.817,0,0,0-.557,1.138q-1.084-.431-0.831-0.539h0ZM78.331,402.366c-0.073-.17-0.278-0.179-0.614-0.035a19.948,19.948,0,0,0-.492-2.182q-0.312-1.065-.6-2.435a1.125,1.125,0,0,0,.866-0.074q0.578,2.739.841,4.726h0ZM74.865,368.99a6.958,6.958,0,0,1,.185,2.165,1.888,1.888,0,0,1-.888-1.712,4.148,4.148,0,0,1,.518-2.618A6.644,6.644,0,0,0,74.865,368.99Zm8.793-136.837c0.021-.407.046-0.815,0.069-1.228a2.188,2.188,0,0,1,1.153-.8,8.888,8.888,0,0,1-.409,2.87,0.9,0.9,0,0,1-.883.381C83.61,232.973,83.635,232.565,83.658,232.153Zm197.4-5.2c0.074,0.169-.06.325-0.4,0.47l-0.47-.4a2.891,2.891,0,0,1,.031-2.707l0.5-.218q0.183,1.122.331,2.851h0ZM74.372,374.441a14.143,14.143,0,0,1,0-2.093,2.021,2.021,0,0,1,.888,1.712,2.988,2.988,0,0,1-.735,2.113C74.468,375.6,74.42,375.019,74.372,374.441ZM281.857,260.732a1.547,1.547,0,0,1,1.212,1.423,2.52,2.52,0,0,1-.555,2.185q-0.3-1.372-.657-3.608h0Zm-76.283-51.964q-0.849.815-1.891,1.863l-0.218-.5c0.7-.7,1.282-1.3,1.765-1.808s1.067-1.106,1.764-1.809c0.073,0.17.149,0.236,0.235,0.2s0.164,0.033.235,0.2Q206.419,207.96,205.574,208.768ZM73.615,342.142a4.24,4.24,0,0,1,.322-1.336c0.218,0.5.409,0.721,0.579,0.648a4.257,4.257,0,0,1,.148,1.732,1.218,1.218,0,0,1-.559.091,1.885,1.885,0,0,0-.812.2A4.458,4.458,0,0,0,73.615,342.142ZM283,271.016a14.1,14.1,0,0,1-.549-3.356q2.058,0.607.549,3.356h0ZM75.665,322.251a8.377,8.377,0,0,1,0,1.047,0.792,0.792,0,0,1-.4.47,0.8,0.8,0,0,0-.4.47,6.174,6.174,0,0,1-.364-1.19,6.416,6.416,0,0,0-.364-1.19C75.134,321.835,75.639,321.963,75.665,322.251Zm211.828-9.922a12.15,12.15,0,0,1-.22-1.551,1.121,1.121,0,0,0,.866-0.075,12.141,12.141,0,0,0,.22,1.552,13.934,13.934,0,0,1,.22,1.551,1.123,1.123,0,0,0-.866.074A13.934,13.934,0,0,0,287.492,312.329ZM298.681,50.542a1.6,1.6,0,0,1,.9-0.688,0.793,0.793,0,0,0-.034.614l0.108,0.252a6.4,6.4,0,0,1-.556,1.138,0.738,0.738,0,0,1-.993.129ZM91.969,187.563a4.247,4.247,0,0,1-.683,1.192c0.073,0.17-.014.207-0.252,0.109a2.457,2.457,0,0,0-.02-0.74,2.4,2.4,0,0,1-.02-0.739,1.538,1.538,0,0,0,.178-0.975,0.811,0.811,0,0,1,.614.034,1.6,1.6,0,0,1,.183,1.119h0Zm28.858-6.307a12.687,12.687,0,0,0-.581-1.695l0.505-.218a5.584,5.584,0,0,0,.455,1.749c0.255,0.592.49,1.136,0.707,1.641l-0.5.218A12.355,12.355,0,0,1,120.827,181.256ZM78.342,276.05a1.7,1.7,0,0,1-.9,2.781,16.316,16.316,0,0,0,.9-2.781h0ZM265.92,120.34c-0.214.892-.878,0.978-1.984,0.257,0.453-.793,1.117-0.879,1.984-0.257h0ZM116.905,170.076a13.081,13.081,0,0,0-.581-1.695l0.613,0.035a14.624,14.624,0,0,0,1.054,3.138l-0.5.217A12.311,12.311,0,0,1,116.905,170.076ZM290.447,326.47l-0.253.109a5.288,5.288,0,0,0-.4-1.624,5.13,5.13,0,0,1-.4-1.623,1.123,1.123,0,0,1,.866-0.074,10.472,10.472,0,0,0,.188,3.212h0ZM194.21,219.205c-0.431.387-.863,0.775-1.3,1.158-0.072-.166-0.153-0.234-0.235-0.2s-0.162-.028-0.235-0.2a27.972,27.972,0,0,0,2.845-2.424,0.808,0.808,0,0,1,.47.4C195.158,218.4,194.644,218.822,194.21,219.205Zm-114.8,52.043a8.343,8.343,0,0,1,0,1.046l-0.757.327a2.972,2.972,0,0,1-.255-0.938,3.073,3.073,0,0,0-.255-0.938C78.966,270.8,79.388,270.96,79.414,271.248ZM75.769,304.1q1.806,0.723,0,2.093l-0.361-.143a6.459,6.459,0,0,0,.357-1.95h0ZM240.641,162.369l-0.108-.252a3.117,3.117,0,0,1,.178-0.975,3.206,3.206,0,0,0,.178-0.975,4.121,4.121,0,0,0,1.336.322,6.179,6.179,0,0,1-1.584,1.88h0ZM83.381,237.062a0.242,0.242,0,0,0,.361.143,4.3,4.3,0,0,1-.322,1.336,0.776,0.776,0,0,1-.614-0.035q0.032-.609.052-0.92l0.052-.92a0.782,0.782,0,0,0,.47.4h0ZM284.161,274.4a4.471,4.471,0,0,1-.322,1.336l-0.253.109a1.121,1.121,0,0,1-.579-0.648c0.02-.411.037-0.717,0.053-0.92a3.667,3.667,0,0,1,.3-1.03A1.381,1.381,0,0,1,284.161,274.4ZM75.955,314.943a8.419,8.419,0,0,0-.124,1.1q-1.373.3-1.084-.431a0.9,0.9,0,0,0-.183-1.119C75.551,314.471,76.012,314.619,75.955,314.943Zm208.358-36.712a0.81,0.81,0,0,1-.034.613,0.776,0.776,0,0,0-.035.614,0.486,0.486,0,0,1-.723-0.287l-0.148-1.732ZM284,281.66a0.486,0.486,0,0,1,.723.287,0.713,0.713,0,0,1,.019.74,0.435,0.435,0,0,0-.089.487,1.535,1.535,0,0,1-.975-0.178A4.11,4.11,0,0,1,284,281.66h0ZM269.475,111.923l-0.218-.5,0.143-.362a1.6,1.6,0,0,1,.941.792l-0.144.362a0.244,0.244,0,0,1-.144.361,1.564,1.564,0,0,1-1.227-.07l-0.109-.252Zm-8.663,16.008q-0.361-.14-1.084-0.431a4.217,4.217,0,0,1,1.191-.364,2.956,2.956,0,0,0,.937-0.254,0.791,0.791,0,0,0-.034.613,2.152,2.152,0,0,1,.074.866Q261.17,128.077,260.812,127.931Zm10.568-19.224a1.106,1.106,0,0,1-.579-0.648l0.253-.109a0.435,0.435,0,0,0,.415.27,0.712,0.712,0,0,1,.525.522l-0.144.361a0.243,0.243,0,0,1-.143.361,1.559,1.559,0,0,1-1.227-.069l0.143-.361ZM92.787,181.823a0.782,0.782,0,0,0,.47.4,6.49,6.49,0,0,0-.936,1.3,0.779,0.779,0,0,1-.47-0.4,6.5,6.5,0,0,1,.936-1.3h0ZM280.952,161.45l-0.757.327,0.1-1.841c0.166-.072.271-0.066,0.307,0.017s0.137,0.091.307,0.017a4.838,4.838,0,0,1,.039,1.48h0ZM82.452,241.5a3.189,3.189,0,0,0,.107-0.795,0.817,0.817,0,0,1,.614.035,1.6,1.6,0,0,1,.183,1.119q0.11,0.254-.648.578a0.241,0.241,0,0,1-.361-0.143A3.053,3.053,0,0,1,82.452,241.5Zm3.92-22.493a0.484,0.484,0,0,1-.722-0.287,4.3,4.3,0,0,1,.683-1.193l0.722,0.287a4.3,4.3,0,0,0-.683,1.193h0ZM262.9,125.833a0.56,0.56,0,0,0-.324.289,0.563,0.563,0,0,1-.325.29,2.294,2.294,0,0,1-.524-0.523,2.609,2.609,0,0,0-.525-0.522,0.558,0.558,0,0,0,.325-0.289,0.561,0.561,0,0,1,.324-0.29,4.645,4.645,0,0,0,1.049,1.045h0ZM284.98,286.025a2.165,2.165,0,0,1,.074.866c-0.339.146-.542,0.131-0.613-0.035a1.853,1.853,0,0,1-.2-0.812,1.93,1.93,0,0,0-.2-0.811,1.125,1.125,0,0,0,.866-0.074A2.076,2.076,0,0,0,284.98,286.025Zm-5.012-96.314a5.6,5.6,0,0,0-.057-1.173,2.415,2.415,0,0,1,.2-1.282q-1.3-.933.03-2.706c-0.027-.985-0.037-1.93-0.024-2.833s0-1.843-.025-2.833q-0.326-.757-0.653-1.515c-0.217-.5.129-0.85,1.045-1.049l-0.218-.5a2.872,2.872,0,0,1-.794-0.107,3.515,3.515,0,0,0-.794-0.107,7.166,7.166,0,0,1-.2,1.282,7.211,7.211,0,0,0-.2,1.282q0.012,4.19-.053,8.553t0.055,8.806l0.327,0.757a3.388,3.388,0,0,1,.794.107,2.852,2.852,0,0,0,.794.106,7.172,7.172,0,0,0-.13-2.038,6.878,6.878,0,0,1-.131-2.039,1.853,1.853,0,0,1,.03-2.707h0Zm0.379-16.476a19.357,19.357,0,0,0,.084-2.581c-0.052-.576-0.074-1.212-0.076-1.912s-0.5-1.031-1.482-1.008q0,2.1-.045,4.061c-0.032,1.314-.085,2.58-0.154,3.807a3.515,3.515,0,0,1,.794.107,2.872,2.872,0,0,0,.794.107A18.444,18.444,0,0,1,280.347,173.235Zm-2.316,30.032a5.725,5.725,0,0,0,.42,2.363,1.137,1.137,0,0,1,.866-0.074,0.669,0.669,0,0,0,.757-0.327,3.4,3.4,0,0,0-.185-2.165,2.6,2.6,0,0,0-1.195-1.729A2.525,2.525,0,0,0,278.031,203.267Zm4.38-67.589a2.067,2.067,0,0,1-.579-0.648,2.169,2.169,0,0,0-.579-0.648,5.838,5.838,0,0,0-.465,1.7,2.036,2.036,0,0,0,.668.161,2.356,2.356,0,0,1,.668.161,2.356,2.356,0,0,0-.668-0.161,2.036,2.036,0,0,1-.668-0.161,5.3,5.3,0,0,0,.057,1.173,5.662,5.662,0,0,1,.056,1.173,1.243,1.243,0,0,1,.56-0.092,1.165,1.165,0,0,0,.559-0.091l0.1-1.841a0.486,0.486,0,0,1,.287-0.723h0Zm-0.639,4.766a0.746,0.746,0,0,1-.416-0.27,0.788,0.788,0,0,0-.415-0.27,1.253,1.253,0,0,1,.559-0.091,1.175,1.175,0,0,0,.559-0.092,1.511,1.511,0,0,1-.831-0.539,0.781,0.781,0,0,1-.614-0.035c-0.287.723-.192,1.182,0.292,1.371l0.252-.109c0.074,0.17.275,0.181,0.614,0.035h0Zm-1.158-1.3,0.614,0.035,0.5-.218a1.519,1.519,0,0,1-.832-0.539Zm1.445,0.574,0.361,0.144a0.242,0.242,0,0,1-.361-0.144h0Zm0.648-.579a0.806,0.806,0,0,0-.487-0.089,0.736,0.736,0,0,1-.487-0.089,0.736,0.736,0,0,0,.487.089,0.806,0.806,0,0,1,.487.089h0Z"/>
  <path id="P" class="cls-1" d="M354.111,137.245a8.459,8.459,0,0,1-1.068.876l-0.229.152-43.021,42.51-23.725,28.343-20.982,30.48-1.908,3.581,0.381,0.077,1.3-2.515L283.168,213.7a2.165,2.165,0,0,0,.5-0.5,2.3,2.3,0,0,1,.5-0.5c0.358-.455,1.194-1.507,2.518-3.162a18.737,18.737,0,0,0,2.365-3.391c0.252,0.054.431-.173,0.534-0.686l6.484-7.619a16.886,16.886,0,0,0,1.335-1.218,22.435,22.435,0,0,0,2.174-2.438c0.713-.914,1.347-1.774,1.908-2.591s0.939-1.394,1.144-1.753q3.051-3.346,6.9-8.228t8.049-9.982a110.87,110.87,0,0,1,8.62-9.371,30.6,30.6,0,0,1,8.77-6.169l11.212-10.437a59.224,59.224,0,0,0,11.4-7.425q6.6-5.212,13.538-11.16t13.539-11.654a121.7,121.7,0,0,1,11.859-9.217l7.321-4.874a73.357,73.357,0,0,1,7.855-4.569l0.152,0.229q-3.206,2.135-6.672,4.112t-6.673,4.112a119.173,119.173,0,0,0-11.478,8.8q-5.985,5.145-12.013,10.474t-12.127,10.055a66.841,66.841,0,0,1-11.592,7.387l-34.172,32.987-22.2,25.676L275.69,226.272l-0.534.686q-7.1,10.668-13.163,21.641a178.22,178.22,0,0,0-10.725,23.32A75.247,75.247,0,0,0,247.1,288.23a46.283,46.283,0,0,0,.637,17.076l-0.685-1.525a13.632,13.632,0,0,0,1.333,2.745c0.735,1.275,1.206,2.06,1.409,2.364a25.351,25.351,0,0,0,4.227,4.615,39.151,39.151,0,0,0,6.134,4.5,22.934,22.934,0,0,0,6.593,2.71,7.17,7.17,0,0,0,5.832-.911,25.532,25.532,0,0,0,2.478-1.98q1.566-1.368.8-2.515a5.015,5.015,0,0,0-4.076-2.9,23.7,23.7,0,0,0-5.489.188q-2.862.418-5.26,0.53a3.634,3.634,0,0,1-3.468-1.489q-2.892-5.332-1.63-13.608a85.04,85.04,0,0,1,4.317-16.578,139.5,139.5,0,0,1,6.642-15.318q3.585-7.006,5.418-10.211,0.916-1.6,2.824-4.687t3.815-6.172q1.911-3.083,3.472-5.449t1.87-2.9l27.083-35.2,41.8-43.349,35.923-29.861c0.15-.1.967-0.695,2.441-1.79s3.191-2.4,5.148-3.922,3.942-3.007,5.948-4.456,3.7-2.628,5.072-3.542l2.059-1.371,1.83-1.218L435.4,98.151q0.225-.15,2.4-1.1t4.8-2.208q2.631-1.256,5.337-2.4t4.232-1.827q2.367-.91,7.4-2.778t10.788-3.385a47.5,47.5,0,0,1,11.131-1.632q5.375-.111,8.041,2.406a11.421,11.421,0,0,1,.723,1.334,10.924,10.924,0,0,0,.724,1.335,28.366,28.366,0,0,1,1.865,4.537,27.6,27.6,0,0,0,1.864,4.537l0.305,0.458a3.132,3.132,0,0,0,0-1.982,15.061,15.061,0,0,0-.913-2.859q-0.611-1.4-1.218-2.821a14.523,14.523,0,0,0-.913-1.868,3.117,3.117,0,0,1,.99.992,42.2,42.2,0,0,1,3.881,10.789,59.3,59.3,0,0,1,1.365,11.969,82.882,82.882,0,0,1-.732,12.044,79.232,79.232,0,0,1-2.179,10.862l-6.19,23.933a32.976,32.976,0,0,1-1.222,3.62q-1.067,2.86-2.328,6.173l-2.52,6.631q-1.26,3.315-2.024,5.144t-2.48,5.449q-1.722,3.623-3.474,7.43T472,199.751a21.976,21.976,0,0,1-1.832,3.7L451.7,235.224,432.779,262.35,416,282.77l-6.255,6.476-0.915.609q-0.3-.456,2.823-4.191t7.1-8.191q3.969-4.454,7.476-8.609t3.967-5.448q4.346-5.865,8.393-11.7t8.164-11.544l0.228-.153,4.5-7.62-0.687.457L434,257.244l-22.5,27.2a17.117,17.117,0,0,1-1.22,1.638,3.584,3.584,0,0,1-.611.572,2.18,2.18,0,0,1-.648.266,4.2,4.2,0,0,0-1.1.571l-0.305-.457-2.131-128.68-1.365-10.978a3.79,3.79,0,0,0-2.019-1.792,17.865,17.865,0,0,0-4.154-1.527q-2.361-.571-4.459-0.994a4.633,4.633,0,0,0-2.553-.116l-0.077.381,0.534,0.305a3.248,3.248,0,0,1,.418,1.373,4.654,4.654,0,0,1,.037,1.3l-2.159,39.41a14.713,14.713,0,0,0-.842,6.669,40.118,40.118,0,0,0,.758,6.595l-0.324,31.254a69.16,69.16,0,0,1,1.4,18.716q-0.5,10.408-.431,18.943l0.153,0.229a49.931,49.931,0,0,0,.756,10.063,30.4,30.4,0,0,1,.222,9.757l-0.305.534,1.135,13.112q0.076,0.615-2.021,2.171a7.89,7.89,0,0,0-2.174,1.943l-7.55,5.026q-3.207,2.136-6.673,4.113t-6.672,4.112a10.967,10.967,0,0,0-1.793,1.524c-0.584.61-1.132,1.2-1.64,1.752l2.593-1.066-4.576,3.047a1.764,1.764,0,0,0-.764,1.829l1.525,0.306-0.534.685a26.094,26.094,0,0,0,16.389.811q8.082-2.24,15.173-4.984l0.381,0.077,0.152,0.229a15.659,15.659,0,0,1,1.178,5.984q0.188,4,.187,5.985l7.362,53.213a33.834,33.834,0,0,0,.95,4.156,19.276,19.276,0,0,1,.8,3.926l0.076,0.61L407,406.639l0.457,0.687q2.055,3.585,5.717,1.147a5.1,5.1,0,0,0,2.213-3.62,27.294,27.294,0,0,0,.308-4.993l-6.731-85.992q-0.306-1.446,0-1.487a2.181,2.181,0,0,0,.916-1.1l16.78-15.464,17.7-20.038a21.484,21.484,0,0,1,1.374-1.9,25.806,25.806,0,0,1,2.059-2.362l22.738-33.3,17.323-31.016,13.589-32.161q3.057-7.312,6.148-17.3a143.871,143.871,0,0,0,4.739-20.656,89.766,89.766,0,0,0,.775-21.153,46.982,46.982,0,0,0-5.515-18.947,37.923,37.923,0,0,0-14.017-14.607,51.448,51.448,0,0,0-18.33-6.453,60.432,60.432,0,0,0-19.477.255,64.414,64.414,0,0,0-17.46,5.516l-25.622,13.1q-1.148.764-3.737,2.323t-5.567,3.541q-2.976,1.981-5.681,3.618t-3.622,2.246a19.609,19.609,0,0,0-1.64,1.257,23,23,0,0,1-2.1,1.562L387.821,111,354.95,136.521A8.492,8.492,0,0,0,354.111,137.245Zm58.037-40.786,0.228-.152,0.153,0.229ZM412.834,96l0.229-.152,0.229-.152a8.713,8.713,0,0,1,.991-0.495,7.926,7.926,0,0,0,.991-0.495l-0.915.609a3.8,3.8,0,0,1-1.525.685h0Zm2.9-1.6,1.144-.762,0.152,0.229Zm1.868-.914c-0.179-.1-0.192-0.2-0.038-0.3-0.1-.15-0.09-0.213.038-0.191a0.574,0.574,0,0,1,.343.267C417.892,93.517,417.777,93.593,417.6,93.49Zm1.3-.533c-0.078.052-.164,0-0.267-0.153s-0.116-.253-0.037-0.305,0.166,0,.266.153S418.971,92.907,418.9,92.957Zm1.259-.838c-0.458.3-.662,0.332-0.61,0.076a0.94,0.94,0,0,1,.419-0.61c0.229-.152.4-0.15,0.5,0C420.712,91.639,420.612,91.814,420.155,92.119Zm1.22-1.143,0.381,0.076-0.229.152Zm0.839-.228a0.275,0.275,0,1,1,.381.076A0.243,0.243,0,0,1,422.214,90.748Zm1.41-.609c-0.078.052-.164,0-0.266-0.153l0.228-.152C423.689,89.988,423.7,90.089,423.624,90.139Zm0.191-.457a0.275,0.275,0,1,1,.381.077A0.243,0.243,0,0,1,423.815,89.682ZM424.5,89.72c-0.152-.229-0.153-0.393,0-0.5s0.305-.038.458,0.191,0.15,0.4,0,.5S424.654,89.949,424.5,89.72Zm0.992-.495a0.243,0.243,0,0,1-.382-0.076l0.458-.3A0.244,0.244,0,0,1,425.493,89.226Zm0.991-.495c-0.153-.229-0.154-0.393,0-0.5s0.305-.038.457,0.191,0.15,0.4,0,.5S426.636,88.959,426.484,88.731Zm0.915-.609c-0.152-.229-0.153-0.393,0-0.5s0.305-.038.458,0.191,0.149,0.4,0,.5S427.551,88.35,427.4,88.121Zm0.915-.609c-0.152-.229-0.153-0.393,0-0.5s0.305-.038.458,0.191,0.15,0.4,0,.5S428.466,87.741,428.314,87.512Zm1.487-.495a0.441,0.441,0,0,1,.191-0.457,0.245,0.245,0,0,1,.381.076c0.1,0.154,0,.331-0.305.534C429.914,87.272,429.825,87.224,429.8,87.017Zm2.326-1.218a0.275,0.275,0,1,1,.381.076A0.243,0.243,0,0,1,432.127,85.8Zm2.173-.951a0.474,0.474,0,0,1,.115-0.572c0.15-.1.305-0.038,0.457,0.191s0.075,0.446-.229.648C434.489,85.217,434.374,85.129,434.3,84.848Zm-43.833,61.376a4.218,4.218,0,0,0,.458-1.295,1.583,1.583,0,0,0-.151-1.22L390.315,146Zm-0.23,2.135a0.274,0.274,0,1,0-.457.3A0.274,0.274,0,1,0,390.237,148.359Zm-0.076.381a0.275,0.275,0,1,0-.458.3A0.275,0.275,0,0,0,390.161,148.74Zm0.075,1.1c-0.152-.229-0.307-0.291-0.457-0.191a0.474,0.474,0,0,0-.115.572c0.074,0.281.189,0.369,0.343,0.267C390.311,150.291,390.389,150.074,390.236,149.845Zm-0.114.572c-0.025-.2-0.192-0.2-0.5,0a0.275,0.275,0,1,0,.305.457A0.445,0.445,0,0,0,390.122,150.417Zm-0.116,1.563c-0.152-.229-0.307-0.291-0.457-0.191s-0.153.266,0,.5,0.3,0.293.457,0.191S390.159,152.208,390.006,151.98Zm0,0.5a0.245,0.245,0,0,0-.381-0.076,0.441,0.441,0,0,0-.191.457c0.024,0.206.188,0.205,0.495,0A0.243,0.243,0,0,0,390.006,152.475Zm-0.191.457c-0.025-.2-0.117-0.252-0.267-0.152a0.444,0.444,0,0,0-.191.457c0.024,0.206.113,0.255,0.267,0.153A0.445,0.445,0,0,0,389.815,152.932Zm-0.191.458a0.274,0.274,0,1,0-.457.3A0.274,0.274,0,1,0,389.624,153.39Zm0,0.5c-0.152-.229-0.307-0.291-0.457-0.191s-0.153.267,0,.5,0.3,0.293.458,0.191S389.776,154.114,389.624,153.885Zm-0.077.381c-0.152-.229-0.307-0.291-0.457-0.191s-0.152.267,0,.5,0.3,0.293.457,0.191S389.7,154.5,389.547,154.266Zm-0.229.648c-0.153.1-.2,0.192-0.152,0.267s0.151,0.064.305-.038Zm0.305,0.458a0.245,0.245,0,0,0-.381-0.077,0.441,0.441,0,0,0-.191.457c0.024,0.206.188,0.2,0.5,0A0.243,0.243,0,0,0,389.623,155.372Zm-0.115.571c-0.077-.278-0.192-0.367-0.343-0.267-0.307.205-.381,0.419-0.229,0.648s0.3,0.293.458,0.191A0.482,0.482,0,0,0,389.508,155.943Zm-0.039,1.182a0.274,0.274,0,1,0-.457.3A0.274,0.274,0,1,0,389.469,157.125Zm-0.382,1.905,0.229-1.143-0.152-.229a0.243,0.243,0,0,0-.076.381,128.618,128.618,0,0,0-.153.763Zm0,0.991,0.077-.381-0.152-.229-0.153.763,0.152,0.228a0.244,0.244,0,0,1,.076-0.381h0ZM257.53,254.542l5.5-10.592,0.076-.381-0.229.152c-0.153.1-.2,0.191-0.152,0.267s0,0.166-.153.266l-0.229.153L256.843,255Zm131.708-93.8c-0.152-.229-0.307-0.291-0.457-0.191s-0.152.267,0,.5,0.3,0.294.457,0.191S389.391,160.974,389.238,160.746Zm-0.038,1.181c-0.025-.2-0.192-0.2-0.5,0a0.275,0.275,0,0,0,.305.457A0.444,0.444,0,0,0,389.2,161.927Zm-0.115.572c-0.152-.229-0.307-0.291-0.457-0.191s-0.153.267,0,.5,0.3,0.293.458,0.19S389.237,162.728,389.085,162.5Zm-0.077.381c-0.152-.229-0.307-0.291-0.457-0.191s-0.152.267,0,.5,0.3,0.293.457,0.19S389.161,163.109,389.008,162.88Zm0,0.5a0.275,0.275,0,1,0-.457.305,0.242,0.242,0,0,0,.381.077A0.245,0.245,0,0,0,389.008,163.375Zm0.076,0.61c-0.051.256-.015,0.4,0.114,0.42s0.216-.087.267-0.343Zm-0.23,2.135a0.275,0.275,0,0,0-.458.3A0.275,0.275,0,1,0,388.854,166.12Zm0,0.5c-0.153-.229-0.307-0.291-0.458-0.191s-0.152.267,0,.5,0.3,0.293.457,0.191S389.006,166.844,388.854,166.615ZM256.309,256.676a0.243,0.243,0,0,1,.076-0.381,0.792,0.792,0,0,0,.305-0.534c0.15-.1.2-0.188,0.153-0.266s0-.165.152-0.267l-0.228.152a1.359,1.359,0,0,0-.42.61,1.325,1.325,0,0,1-.42.61ZM388.815,167.8c-0.025-.2-0.192-0.2-0.5,0a0.245,0.245,0,0,0-.076.382,0.242,0.242,0,0,0,.381.076A0.443,0.443,0,0,0,388.815,167.8Zm-0.191.953c-0.153-.229-0.307-0.291-0.458-0.191s-0.152.266,0,.5,0.3,0.293.457,0.191S388.776,168.978,388.624,168.75ZM255.393,258.276a1.478,1.478,0,0,0,.458-1.3l-0.229.152a1.076,1.076,0,0,0-.458,1.3Zm133.383-88.8a0.275,0.275,0,1,0-.458.3A0.275,0.275,0,0,0,388.776,169.474Zm-0.077.381a0.245,0.245,0,0,0-.381-0.077,0.443,0.443,0,0,0-.191.458c0.024,0.206.188,0.205,0.5,0A0.243,0.243,0,0,0,388.7,169.855ZM495.39,99.484a0.245,0.245,0,0,0-.381-0.076l0.152,0.229,0.152,0.229A0.243,0.243,0,0,0,495.39,99.484ZM255.011,259.191l0.076-.381-0.228.152-0.077.381Zm133.726-88.536c-0.077-.278-0.268-0.317-0.572-0.114-0.154.1-.152,0.266,0,0.5s0.3,0.293.457,0.191A0.483,0.483,0,0,0,388.737,170.655ZM254.248,261.02a1.482,1.482,0,0,0,.458-1.3l-0.229.153a1.074,1.074,0,0,0-.458,1.3Zm134.3-89.412a0.275,0.275,0,0,0-.458.305A0.275,0.275,0,0,0,388.546,171.608Zm107.375-68.846a8.343,8.343,0,0,1-.075-1.105,1.711,1.711,0,0,0-.3-0.953,1.856,1.856,0,0,0,.227,1.829ZM253.942,261.553a1.582,1.582,0,0,0-.61,1.067,1.582,1.582,0,0,0,.61-1.067h0Zm134.6-88.954a0.275,0.275,0,0,0-.458.305A0.275,0.275,0,0,0,388.545,172.6Zm-0.115.572c-0.077-.279-0.192-0.367-0.343-0.267a0.473,0.473,0,0,0-.114.571c0.073,0.282.189,0.37,0.343,0.267A0.48,0.48,0,0,0,388.43,173.171ZM252.8,264.3a1.477,1.477,0,0,0,.458-1.3l-0.228.153a2.566,2.566,0,0,0-.459,1.3Zm135.671-90.326a0.275,0.275,0,0,0-.458.305A0.275,0.275,0,0,0,388.468,173.971Zm-0.077.381a0.275,0.275,0,0,0-.457.305A0.275,0.275,0,0,0,388.391,174.352Zm107.834-70.141a0.56,0.56,0,0,1-.114-0.42,0.558,0.558,0,0,0-.114-0.419l-0.152-.229c-0.154.1-.126,0.306,0.076,0.61Zm-243.81,161,0.077-.381-0.229.153-0.076.381Zm135.9-90.478a0.275,0.275,0,1,0-.076.382A0.245,0.245,0,0,0,388.315,174.733ZM389,174.772c-0.152-.229-0.307-0.291-0.457-0.191s-0.153.267,0,.5,0.3,0.293.458,0.19S389.153,175,389,174.772ZM251.881,265.9c-0.051.256,0,.331,0.153,0.229a0.243,0.243,0,0,0,.076-0.381Zm136.586-90.439c-0.152-.229-0.307-0.291-0.457-0.191s-0.153.267,0,.5,0.3,0.294.458,0.191S388.619,175.687,388.467,175.458ZM251.652,267.041a0.244,0.244,0,0,0,.076-0.382l-0.228.153-0.077.381Zm136.815-91.088a0.245,0.245,0,0,0-.381-0.076,0.441,0.441,0,0,0-.191.457c0.023,0.206.113,0.255,0.266,0.153C388.465,176.284,388.569,176.107,388.467,175.953Zm107.757-69.76a1.865,1.865,0,0,0-.3-1.449,1.536,1.536,0,0,0,0,.991ZM251.27,267.955l0.077-.381-0.229.152-0.077.381Zm137.044-91.24a0.275,0.275,0,0,0-.458.305,0.242,0.242,0,0,0,.381.077A0.245,0.245,0,0,0,388.314,176.715Zm0,0.5c-0.152-.229-0.307-0.291-0.457-0.191s-0.152.267,0,.5,0.3,0.293.457,0.19S388.466,177.44,388.313,177.211Zm-137.5,92.04,0.229-.153c-0.1-.15-0.117-0.252-0.038-0.305s0.064-.151-0.038-0.305l-0.229.153-0.153.762Zm137.425-91.659c-0.152-.229-0.307-0.291-0.457-0.191s-0.153.267,0,.5,0.3,0.293.458,0.191S388.389,177.821,388.237,177.592Zm107.91-69.036a1.763,1.763,0,0,0,0-1.982,1.611,1.611,0,0,0-.154,1.753ZM250.736,269.632a0.275,0.275,0,1,0-.458.3A0.275,0.275,0,0,0,250.736,269.632Zm137.653-91.316a0.275,0.275,0,0,0-.458.305A0.275,0.275,0,0,0,388.389,178.316Zm-138.225,91.7c-0.079.052-.062,0.154,0.038,0.305s0.188,0.205.266,0.152,0.065-.151-0.038-0.305S250.239,269.963,250.164,270.013ZM388.313,178.7a0.246,0.246,0,0,0-.382-0.076,0.442,0.442,0,0,0-.19.457c0.023,0.206.113,0.255,0.266,0.153C388.311,179.029,388.415,178.851,388.313,178.7ZM250.354,270.546a0.275,0.275,0,0,0-.458.305A0.275,0.275,0,0,0,250.354,270.546Zm137.653-90.324,0.076-.381-0.152-.229-0.152-.229c0.1,0.154.113,0.255,0.037,0.3s-0.062.155,0.038,0.305ZM250.124,271.69l-0.3-.458,0.076,0.61Zm-0.686,1.448,0.152-.763-0.228.153-0.153.762Zm138.721-92.687a0.275,0.275,0,0,0-.458.3A0.275,0.275,0,1,0,388.159,180.451Zm108.063-71.285-0.152-.229-0.076.381,0.152,0.229ZM387.854,180.984a0.243,0.243,0,0,0-.077.381c0.1,0.154.178,0.1,0.229-.152ZM249.437,273.633c-0.152-.229-0.307-0.291-0.457-0.191s-0.153.267,0,.5,0.3,0.293.457,0.191S249.59,273.862,249.437,273.633Zm138.8-92.077c-0.153-.229-0.308-0.291-0.458-0.191a0.474,0.474,0,0,0-.114.572q0.109,0.421.571,0.115C388.384,181.952,388.387,181.785,388.235,181.556ZM496.374,109.89c-0.152-.229-0.307-0.291-0.457-0.191a0.474,0.474,0,0,0-.115.572q0.111,0.422.572,0.114C496.524,110.285,496.527,110.119,496.374,109.89ZM248.9,274.814a0.792,0.792,0,0,0,.305-0.533,0.246,0.246,0,0,0-.381-0.077l-0.153.763ZM388.12,182.128c-0.025-.2-0.117-0.253-0.267-0.153-0.307.205-.405,0.383-0.305,0.534a0.242,0.242,0,0,0,.381.076A0.443,0.443,0,0,0,388.12,182.128Zm108.1-71.476c-0.05-.075-0.154-0.062-0.3.038l0.152,0.229C496.219,110.819,496.274,110.731,496.221,110.652ZM388.005,182.7c-0.05-.075-0.155-0.062-0.305.038l0.153,0.229C388,182.866,388.058,182.778,388.005,182.7ZM248.826,275.2a0.275,0.275,0,0,0-.457.305A0.275,0.275,0,1,0,248.826,275.2Zm247.4-164.047a0.274,0.274,0,1,0-.457.3A0.274,0.274,0,1,0,496.221,111.148ZM248.75,275.577a0.275,0.275,0,1,0-.458.3A0.275,0.275,0,0,0,248.75,275.577Zm139.331-92.268c-0.152-.228-0.307-0.291-0.457-0.191s-0.153.267,0,.5,0.3,0.293.458,0.191S388.233,183.538,388.081,183.309Zm-0.076.381c-0.153-.228-0.308-0.29-0.458-0.19s-0.152.266,0,.5,0.3,0.293.457,0.191S388.157,183.919,388.005,183.69Zm-139.637,93.3c-0.152-.229-0.307-0.291-0.457-0.191a0.473,0.473,0,0,0-.115.571c0.074,0.282.189,0.37,0.343,0.267C248.443,277.432,248.52,277.215,248.368,276.987Zm139.789-92.572a0.246,0.246,0,0,0-.382-0.077,0.442,0.442,0,0,0-.19.457c0.023,0.207.188,0.205,0.5,0A0.244,0.244,0,0,0,388.157,184.415Zm-0.191.457c-0.025-.2-0.117-0.253-0.267-0.153-0.307.205-.405,0.384-0.305,0.534a0.242,0.242,0,0,0,.381.076A0.445,0.445,0,0,0,387.966,184.872Zm-0.115.572c-0.05-.075-0.155-0.062-0.305.038l0.152,0.228C387.848,185.61,387.9,185.522,387.851,185.444ZM247.986,278.4a0.275,0.275,0,1,0-.458.3A0.275,0.275,0,0,0,247.986,278.4Zm0,0.5c-0.153-.229-0.308-0.291-0.458-0.191s-0.152.267,0,.5,0.3,0.293.457,0.191S248.138,279.121,247.986,278.892Zm139.941-92.838c-0.152-.229-0.307-0.291-0.457-0.191s-0.153.266,0,.5,0.3,0.293.458,0.191S388.079,186.282,387.927,186.054Zm0.762-.343a0.246,0.246,0,0,0-.381-0.077c-0.253-.047-0.305.038-0.152,0.267s0.3,0.293.457,0.191A0.243,0.243,0,0,0,388.689,185.711ZM496.3,114.235c-0.152-.229-0.307-0.291-0.457-0.191s-0.152.267,0,.5,0.3,0.293.457,0.191S496.448,114.464,496.3,114.235ZM387.927,186.549a0.275,0.275,0,0,0-.458.305A0.275,0.275,0,0,0,387.927,186.549ZM496.3,114.731a0.274,0.274,0,1,0-.457.3A0.274,0.274,0,1,0,496.3,114.731Zm-0.382,1.905,0.229-1.143-0.152-.229a0.243,0.243,0,0,0-.077.381,0.243,0.243,0,0,1-.076.381,0.243,0.243,0,0,0-.076.381ZM388,187.159a0.275,0.275,0,1,0-.457.305A0.275,0.275,0,0,0,388,187.159Zm-0.114.572c-0.078-.279-0.193-0.367-0.343-0.267a0.472,0.472,0,0,0-.115.571c0.074,0.281.189,0.37,0.343,0.267A0.482,0.482,0,0,0,387.888,187.731Zm-0.039.686c-0.05-.075-0.155-0.062-0.305.038l0.153,0.228C387.847,188.583,387.9,188.5,387.849,188.417Zm108.216-71.552a0.274,0.274,0,1,0-.457.3A0.274,0.274,0,1,0,496.065,116.865ZM387.849,188.912a0.275,0.275,0,0,0-.458.305A0.275,0.275,0,0,0,387.849,188.912Zm108.14-71.666a0.275,0.275,0,1,0-.458.305A0.275,0.275,0,0,0,495.989,117.246Zm-108.445,72.2c-0.154.1-.012,0.229,0.419,0.381s0.6,0.154.5,0c-0.305-.457-0.611-0.584-0.914-0.381h0Zm108.368-71.819a0.275,0.275,0,1,0-.457.305A0.275,0.275,0,1,0,495.912,117.627ZM246.954,283.046c-0.025-.2-0.117-0.252-0.267-0.153-0.307.205-.405,0.384-0.305,0.534a0.241,0.241,0,0,0,.381.076A0.443,0.443,0,0,0,246.954,283.046Zm140.97-93.028c-0.152-.229-0.307-0.291-0.457-0.191s-0.153.266,0,.5,0.3,0.293.457,0.191S388.077,190.246,387.924,190.018Zm0,0.5a0.245,0.245,0,0,0-.381-0.076,0.441,0.441,0,0,0-.191.457c0.024,0.206.113,0.255,0.267,0.152C387.923,190.844,388.026,190.667,387.924,190.513ZM246.762,284.494a0.275,0.275,0,1,0-.457.3A0.275,0.275,0,0,0,246.762,284.494Zm-0.076.381a0.275,0.275,0,0,0-.458.305A0.275,0.275,0,1,0,246.686,284.875Zm140.59-93.6c-0.079.052-.062,0.155,0.038,0.305s0.188,0.2.266,0.152,0.065-.151-0.038-0.3S387.351,191.225,387.276,191.275Zm0.418,1.372-0.152-.228-0.077.381Zm107.6-69a2.064,2.064,0,0,0,.343-1.22,7.772,7.772,0,0,0,.04-1.677l-0.229.153-0.383,2.9ZM387.541,193.41c-0.051.256-.014,0.4,0.114,0.419s0.216-.087.267-0.343Zm0.114,0.419q-0.115-.418-0.571-0.115c-0.154.1-.153,0.267,0,0.5s0.3,0.293.457,0.191A0.48,0.48,0,0,0,387.655,193.829Zm-0.039,1.181a0.275,0.275,0,1,0-.457.305A0.275,0.275,0,1,0,387.616,195.01Zm0.3,1.449-0.381-.076-0.305.533Zm107.072-70.295-0.152-.228-0.077.381Zm-107.453,71.21a0.275,0.275,0,0,0-.458.3A0.275,0.275,0,1,0,387.539,197.374Zm0,0.5c-0.152-.229-0.307-0.291-0.457-0.191s-0.153.267,0,.5,0.3,0.293.457,0.191S387.691,198.1,387.538,197.869Zm107.072-69.8,0.229-1.143-0.152-.229-0.306,1.524Zm-107,70.9a0.245,0.245,0,0,0-.381-0.076,0.441,0.441,0,0,0-.191.457c0.024,0.206.188,0.205,0.5,0A0.244,0.244,0,0,0,387.614,198.974Zm106.919-70.523a0.275,0.275,0,0,0-.457.305A0.275,0.275,0,0,0,494.533,128.451ZM387.156,200.27c-0.052.256,0.114,0.419,0.5,0.5s0.522,0.04.419-.114c-0.3-.458-0.61-0.584-0.914-0.382h0ZM494.38,130.2a0.245,0.245,0,0,0-.381-0.076,0.441,0.441,0,0,0-.191.457c0.024,0.206.113,0.255,0.267,0.153C494.378,130.535,494.482,130.358,494.38,130.2ZM387.536,201.338a0.274,0.274,0,1,0-.457.3A0.274,0.274,0,1,0,387.536,201.338Zm106.653-70.677c-0.025-.2-0.192-0.2-0.5,0a0.275,0.275,0,0,0,.305.458A0.444,0.444,0,0,0,494.189,130.661ZM387.46,201.719a0.245,0.245,0,0,0-.381-0.077,0.441,0.441,0,0,0-.191.457c0.023,0.207.188,0.205,0.5,0A0.244,0.244,0,0,0,387.46,201.719Zm106.385-68.847a0.791,0.791,0,0,1-.076-0.61l0.153-.762-0.153-.229-0.153,1.753ZM387.5,202.519q-0.115-.418-0.571-0.115c-0.154.1-.153,0.267,0,0.5s0.3,0.293.458,0.191A0.482,0.482,0,0,0,387.5,202.519Zm-0.038.686c-0.05-.075-0.155-0.062-0.305.038l0.152,0.229C387.456,203.372,387.511,203.284,387.459,203.205Zm0.686,0.039a0.275,0.275,0,0,0-.458.3A0.275,0.275,0,1,0,388.145,203.244Zm105.509-69.915c-0.025-.2-0.117-0.252-0.267-0.152-0.307.2-.4,0.383-0.305,0.533a0.241,0.241,0,0,0,.381.076A0.444,0.444,0,0,0,493.654,133.329Zm-106.2,71.363-0.305-.458,0.076,0.61Zm106-69.915,0.077-.381-0.153-.228-0.152-.229v0.991Zm-106.043,70.6c-0.025-.2-0.116-0.253-0.266-0.153-0.308.205-.406,0.383-0.306,0.534a0.242,0.242,0,0,0,.381.076A0.441,0.441,0,0,0,387.419,205.378Zm105.967-70.219a0.275,0.275,0,1,0-.458.3A0.275,0.275,0,0,0,493.386,135.159ZM246.143,299.435a0.275,0.275,0,1,0-.457.305A0.275,0.275,0,1,0,246.143,299.435Zm141.162-93.486c-0.05-.075-0.155-0.062-0.305.038l0.152,0.229C387.3,206.116,387.357,206.028,387.305,205.949Zm106-70.409a0.245,0.245,0,0,0-.381-0.077,0.441,0.441,0,0,0-.191.457c0.024,0.207.188,0.205,0.5,0A0.243,0.243,0,0,0,493.309,135.54Zm-0.114.571c-0.078-.278-0.193-0.367-0.343-0.267a0.474,0.474,0,0,0-.115.572c0.074,0.281.189,0.369,0.343,0.267A0.483,0.483,0,0,0,493.2,136.111ZM387.38,206.559c-0.152-.229-0.307-0.291-0.457-0.191s-0.152.267,0,.5,0.3,0.293.457,0.191S387.533,206.788,387.38,206.559ZM493,136.569c-0.153-.229-0.307-0.291-0.458-0.191s-0.152.266,0,.5,0.3,0.293.457,0.191S493.156,136.8,493,136.569ZM387.3,207.436l-0.153-.229c-0.153.1-.2,0.192-0.152,0.267s0.151,0.064.3-.038h0ZM493,137.064a0.275,0.275,0,1,0-.457.305A0.275,0.275,0,1,0,493,137.064Zm-0.076.381a0.275,0.275,0,0,0-.458.305A0.275,0.275,0,0,0,492.927,137.445Zm-105.471,70.22a0.245,0.245,0,0,0-.381-0.077,0.441,0.441,0,0,0-.191.457c0.024,0.207.188,0.205,0.5,0A0.244,0.244,0,0,0,387.456,207.665Zm0.686-.457a0.274,0.274,0,1,0-.457.3A0.274,0.274,0,1,0,388.142,207.208ZM492.85,137.826a0.275,0.275,0,0,0-.457.305A0.275,0.275,0,1,0,492.85,137.826ZM386.922,208.35l0.3,0.458a0.348,0.348,0,0,0-.3-0.458h0Zm105.317-68.466,0.306-1.524-0.229.152-0.3,1.525Zm-104.86,69.153a0.275,0.275,0,1,0-.458.3A0.275,0.275,0,0,0,387.379,209.037Zm0.533,1.3-0.686-.534-0.076.381Zm104.251-70.068a0.275,0.275,0,0,0-.458.305A0.275,0.275,0,0,0,492.163,140.265Zm-0.077.381a0.275,0.275,0,0,0-.457.305A0.275,0.275,0,1,0,492.086,140.646Zm0,0.5c-0.152-.229-0.307-0.291-0.457-0.191s-0.153.267,0,.5,0.3,0.293.457,0.19S492.238,141.371,492.086,141.142Zm-0.688,2.934a1.1,1.1,0,0,1,.077-0.876,1.1,1.1,0,0,0,.077-0.877l0.076-.381-0.229.152-0.23,2.135Zm-103.716,67.4L387.3,211.4l-0.229.152-0.076.381ZM387.377,213l-0.153-.229-0.076.381Zm103.83-68.467c-0.025-.2-0.116-0.253-0.266-0.153a0.441,0.441,0,0,0-.191.457c0.023,0.206.113,0.255,0.266,0.153A0.441,0.441,0,0,0,491.207,144.534ZM387.528,214.221l-0.3-.458-0.306.533Zm103.488-69.23a0.275,0.275,0,1,0-.457.3A0.275,0.275,0,1,0,491.016,144.991Zm-0.305.533a0.275,0.275,0,0,0-.457.305A0.275,0.275,0,0,0,490.711,145.524Zm0,0.5c-0.152-.229-0.307-0.291-0.457-0.191s-0.153.267,0,.5,0.3,0.294.458,0.191S490.863,146.249,490.711,146.02ZM387.3,215.364l-0.153-.229-0.076.381Zm102.648-67.02a2.114,2.114,0,0,0,.534-0.685,0.878,0.878,0,0,0,0-.991,6.457,6.457,0,0,0-.764,1.829ZM387.6,216.317c-0.152-.229-0.307-0.291-0.457-0.191s-0.153.267,0,.5,0.3,0.293.457,0.19S387.755,216.546,387.6,216.317Zm-0.229.648-0.229.152,0.153,0.229a0.244,0.244,0,0,0,.076-0.381h0ZM489.947,148.84c-0.152-.229-0.307-0.291-0.457-0.191s-0.153.267,0,.5,0.3,0.293.458,0.19S490.1,149.069,489.947,148.84Zm0,0.5a0.275,0.275,0,0,0-.458.3,0.242,0.242,0,0,0,.381.077A0.245,0.245,0,0,0,489.947,149.335Zm-101.7,67.707c-0.025-.2-0.117-0.253-0.267-0.153a0.441,0.441,0,0,0-.191.457c0.024,0.206.113,0.255,0.267,0.153A0.445,0.445,0,0,0,388.251,217.042Zm101.39-67.173a0.245,0.245,0,0,0-.381-0.077,0.442,0.442,0,0,0-.191.458c0.024,0.206.113,0.255,0.267,0.152C489.64,150.2,489.744,150.023,489.641,149.869Zm-0.191.457c-0.024-.2-0.191-0.2-0.5,0a0.275,0.275,0,1,0,.305.457A0.442,0.442,0,0,0,489.45,150.326ZM387.6,218.3c-0.152-.229-0.307-0.291-0.457-0.191s-0.153.267,0,.5,0.3,0.293.458,0.19S387.754,218.528,387.6,218.3Zm101.734-67.4c-0.153-.229-0.307-0.291-0.458-0.191s-0.152.267,0,.5,0.3,0.294.457,0.191S489.488,151.127,489.336,150.9ZM387.525,218.68c-0.152-.229-0.307-0.291-0.457-0.191s-0.152.267,0,.5,0.3,0.293.457,0.191S387.678,218.909,387.525,218.68Zm101.429-66.372,0.153-.762-0.153-.229a0.244,0.244,0,0,0-.076.381l-0.077.381a0.244,0.244,0,0,0-.076.381ZM387.487,219.862c-0.025-.2-0.117-0.253-0.267-0.153a0.441,0.441,0,0,0-.191.457c0.024,0.206.113,0.255,0.267,0.153A0.445,0.445,0,0,0,387.487,219.862Zm101.39-67.173a0.245,0.245,0,0,0-.381-0.077,0.443,0.443,0,0,0-.191.458c0.024,0.206.113,0.255,0.267,0.152C488.876,153.02,488.98,152.843,488.877,152.689Zm-0.763.838c0.1,0.154.188,0.205,0.267,0.153s0.065-.152-0.038-0.305Zm0.229,0.343c-0.152-.229-0.307-0.291-0.457-0.191s-0.153.267,0,.5,0.3,0.293.458,0.191S488.5,154.1,488.343,153.87ZM387.3,221.31l0.381,0.076,0.229-.152Zm100.971-67.059c-0.152-.229-0.307-0.291-0.457-0.191s-0.152.267,0,.5,0.3,0.293.457,0.191S488.419,154.48,488.266,154.251Zm-0.535,2.172-0.152-.228a2.607,2.607,0,0,0,.458-1.3l-0.228.152a0.73,0.73,0,0,0-.23.648,0.743,0.743,0,0,1-.229.648ZM387.6,222.263c-0.152-.229-0.307-0.291-0.457-0.191s-0.152.267,0,.5,0.3,0.293.457,0.19S387.752,222.492,387.6,222.263Zm-0.076.381c-0.152-.229-0.307-0.291-0.457-0.191a0.474,0.474,0,0,0-.115.572c0.074,0.281.189,0.369,0.343,0.267C387.6,223.09,387.675,222.873,387.523,222.644Zm99.827-65.306,0.076-.381-0.229.152-0.076.381Zm-99.9,66.183a0.274,0.274,0,1,0-.457.3A0.274,0.274,0,1,0,387.446,223.521Zm-0.076.381a0.275,0.275,0,1,0-.458.3A0.275,0.275,0,0,0,387.37,223.9Zm99.9-66.183a0.275,0.275,0,0,0-.457.305A0.275,0.275,0,1,0,487.273,157.719ZM388.056,223.94c-0.153-.228-0.307-0.29-0.457-0.191s-0.153.267,0,.5,0.3,0.293.457,0.191S388.208,224.169,388.056,223.94Zm97.69-62.563a2.381,2.381,0,0,0,.764-1.333c0.2-.684.355-1.279,0.458-1.791l-0.229.152a2.4,2.4,0,0,0-.763,1.333c-0.2.688-.357,1.285-0.458,1.792Zm-98.378,65.5-0.152-.229-0.077.381,0.61-.076a0.245,0.245,0,0,0-.381-0.076h0Zm98.378-65c-0.152-.229-0.307-0.291-0.457-0.191s-0.153.267,0,.5,0.3,0.294.458,0.191S485.9,162.1,485.746,161.873ZM485.44,162.9l0.077-.381-0.229.152-0.076.381Zm-98.073,64.964c-0.153.1-.14,0.207,0.038,0.3s0.292,0.027.343-.229Zm0.153,0.229a0.246,0.246,0,0,0-.382-0.077,0.442,0.442,0,0,0-.19.457c0.023,0.206.188,0.205,0.5,0A0.244,0.244,0,0,0,387.52,228.1Zm96.928-62.221c0.2-.352.418-0.774,0.648-1.257a1.171,1.171,0,0,0,.192-0.953l-0.153-.229a1.582,1.582,0,0,0-.61,1.067c-0.1.512-.2,1.018-0.306,1.524ZM387.557,228.9c-0.128-.023-0.217.093-0.267,0.343l0.153,0.229,0.228-.153C387.721,229.064,387.685,228.924,387.557,228.9Zm-0.343.724,0.152,0.229,0.229-.153c0.05-.25-0.077-0.278-0.381-0.076h0Zm0,0.991c-0.051.256,0.114,0.419,0.5,0.5s0.522,0.039.42-.114c-0.305-.458-0.611-0.584-0.915-0.382h0Zm96.776-63.44,0.153-.762-0.228.152-0.153.762Zm-0.3.533-0.229.152-0.381.915-0.077.381a2.254,2.254,0,0,0,.687-1.448h0Zm-96.129,64.165a0.573,0.573,0,0,0-.419.114l0.152,0.229,0.229-.152C387.667,231.959,387.683,231.9,387.555,231.868Zm-0.267.343a0.275,0.275,0,1,0-.457.3A0.275,0.275,0,1,0,387.288,232.211Zm0.152,0.724c-0.152-.229-0.307-0.291-0.457-0.191s-0.153.267,0,.5,0.3,0.293.457,0.191S387.593,233.164,387.44,232.935Zm95.328-62.641c0.15-.1.129-0.3-0.076-0.609l-0.229.152c0.1,0.154.113,0.255,0.038,0.305s-0.062.155,0.038,0.305Zm-95.4,63.518-0.153-.229c-0.153.1-.2,0.192-0.152,0.267s0.151,0.064.3-.038h0Zm94.6-61c0.228-.813.394-1.47,0.5-1.982l-0.229.152a4.287,4.287,0,0,1-.458,1.3,2.689,2.689,0,0,1-.42,1.1,1.764,1.764,0,0,0-.344.724l-0.076.381A2.863,2.863,0,0,0,481.966,172.81Zm-94.45,61.231a0.245,0.245,0,0,0-.381-0.077,0.441,0.441,0,0,0-.191.457c0.024,0.206.188,0.205,0.5,0A0.243,0.243,0,0,0,387.516,234.041Zm0.686-.457a0.274,0.274,0,1,0-.457.3A0.274,0.274,0,1,0,388.2,233.584Zm-0.8,1.028c-0.077-.279-0.193-0.367-0.343-0.267-0.307.205-.381,0.419-0.229,0.648s0.3,0.293.458,0.191A0.482,0.482,0,0,0,387.4,234.612Zm0.038,0.8a0.275,0.275,0,1,0-.458.3A0.275,0.275,0,0,0,387.439,235.413Zm0.8-.533c-0.025-.2-0.117-0.253-0.267-0.153-0.308.2-.405,0.383-0.305,0.533a0.242,0.242,0,0,0,.381.077A0.445,0.445,0,0,0,388.24,234.88Zm-0.878.914a0.274,0.274,0,1,0-.457.3A0.274,0.274,0,1,0,387.362,235.794Zm0.152,0.724c-0.152-.229-0.307-0.291-0.457-0.191s-0.153.267,0,.5,0.3,0.293.457,0.191S387.667,236.747,387.514,236.518Zm-0.076.381c-0.152-.229-0.307-0.291-0.457-0.191s-0.153.267,0,.5,0.3,0.293.458,0.191S387.59,237.128,387.438,236.9Zm0.686-.457c-0.152-.229-0.307-0.291-0.457-0.191s-0.153.267,0,.5,0.3,0.293.457,0.191S388.277,236.671,388.124,236.442Zm92.582-60.813,0.153-.762-0.229.152-0.228.153c0.1,0.153.113,0.255,0.038,0.305s-0.062.154,0.037,0.305ZM387.476,237.7c-0.025-.2-0.117-0.253-0.267-0.153-0.308.205-.405,0.383-0.305,0.533a0.242,0.242,0,0,0,.381.077A0.445,0.445,0,0,0,387.476,237.7Zm92.849-61.156,0.076-.381-0.229.152-0.076.381Zm-0.535,2.172a2.094,2.094,0,0,0,.458-1.791,3.444,3.444,0,0,0-1.6,3.048A5.269,5.269,0,0,0,479.79,178.716Zm-92.2,60.394c-0.05-.075-0.155-0.062-0.305.038-0.254-.048-0.329,0-0.229.152a0.242,0.242,0,0,0,.381.077C387.587,239.277,387.641,239.189,387.589,239.11Zm0,0.495a0.275,0.275,0,0,0-.458.305,0.242,0.242,0,0,0,.381.077A0.245,0.245,0,0,0,387.589,239.605Zm0.037,0.8c-0.077-.279-0.192-0.367-0.343-0.267a0.474,0.474,0,0,0-.114.572c0.073,0.281.189,0.369,0.343,0.267A0.482,0.482,0,0,0,387.626,240.406Zm-0.076.381q-0.115-.418-0.572-0.115c-0.154.1-.152,0.267,0,0.5s0.3,0.293.457,0.191A0.482,0.482,0,0,0,387.55,240.787Zm90.866-59.67,0.153-.763-0.229.153-0.229.152,0.076,0.61Zm-90.829,60.471a0.274,0.274,0,1,0-.457.3A0.274,0.274,0,1,0,387.587,241.588ZM477.2,183.25a1.856,1.856,0,0,0,.916-1.6l-0.229.152a2.375,2.375,0,0,0-.916,1.6Zm-89.608,58.833c-0.05-.075-0.155-0.062-0.305.038s-0.2.192-.152,0.267,0.151,0.064.305-.038S387.64,242.162,387.587,242.083Zm0.076,0.61c-0.152-.229-0.307-0.291-0.457-0.191s-0.153.267,0,.5,0.3,0.293.458,0.19S387.815,242.922,387.663,242.693Zm89.3-58.3-0.076-.61-0.229.152c0.1,0.154.113,0.255,0.038,0.305s-0.062.155,0.038,0.3Zm-89.265,59.1c-0.025-.2-0.117-0.252-0.267-0.152-0.308.2-.405,0.383-0.305,0.533a0.242,0.242,0,0,0,.381.077A0.446,0.446,0,0,0,387.7,243.493Zm-0.191.458a0.275,0.275,0,1,0-.458.3A0.275,0.275,0,0,0,387.51,243.951Zm0.8-.534c-0.025-.2-0.117-0.252-0.267-0.152a0.441,0.441,0,0,0-.191.457c0.024,0.206.113,0.255,0.267,0.153A0.446,0.446,0,0,0,388.311,243.417Zm87.739-57.423a1.576,1.576,0,0,0,.61-1.067l-0.229.152a1.586,1.586,0,0,0-.61,1.067Zm-88.388,58.681c-0.153-.229-0.307-0.291-0.457-0.191s-0.153.267,0,.5,0.3,0.293.457,0.19S387.814,244.9,387.662,244.675Zm-0.077.381c-0.152-.229-0.307-0.291-0.457-0.191s-0.153.267,0,.5,0.3,0.293.457,0.191S387.738,245.285,387.585,245.056ZM475.667,187.9l0.078-1.372a2.577,2.577,0,0,0-.459,1.3Zm-87.93,57.881a0.245,0.245,0,0,0-.381-0.076,0.441,0.441,0,0,0-.191.457c0.024,0.206.188,0.205,0.5,0A0.243,0.243,0,0,0,387.737,245.78Zm87.091-56.166a10.537,10.537,0,0,0,.382-1.41l-0.229.152a1.947,1.947,0,0,0-.84,2.21A1.832,1.832,0,0,0,474.828,189.614ZM388.347,246.2c-0.152-.229-0.307-0.291-0.457-0.191a0.474,0.474,0,0,0-.115.572c0.074,0.281.189,0.369,0.343,0.267Q388.574,246.544,388.347,246.2Zm-0.763.838c-0.152-.229-0.307-0.291-0.457-0.191s-0.153.267,0,.5,0.3,0.293.457,0.191S387.736,247.267,387.584,247.038Zm0.686,0.039a0.274,0.274,0,1,0-.457.3A0.274,0.274,0,1,0,388.27,247.077Zm-0.61,1.066-0.229.153,0.61-.076ZM473.8,190.8c-0.079.052-.062,0.155,0.038,0.305-0.051.256,0,.331,0.152,0.229a0.244,0.244,0,0,0,.077-0.381C473.965,190.8,473.873,190.745,473.8,190.8Zm-0.841,3.2a6.37,6.37,0,0,0,.574-2.363,3.794,3.794,0,0,0-1.221,1.639,9.5,9.5,0,0,0-.687,1.943l0.076,0.61A4.006,4.006,0,0,0,472.957,194Zm-84.993,55.6-0.153-.229Zm-0.077.877c-0.152-.229-0.307-0.291-0.457-0.191s-0.153.266,0,.5,0.3,0.293.458,0.191S388.039,250.7,387.887,250.469Zm-0.229.647c-0.154.1-.038,0.191,0.343,0.267s0.521,0.04.419-.114c-0.405-.607-0.661-0.659-0.762-0.153h0Zm0.3,0.458a0.275,0.275,0,0,0-.457.3A0.275,0.275,0,0,0,387.962,251.574Zm83.393-55.521c-0.078.053-.062,0.155,0.038,0.305l0.229-.152C471.522,196.056,471.43,196,471.355,196.053Zm-83.317,56.131a0.245,0.245,0,0,0-.381-0.077l0.305,0.458a0.241,0.241,0,0,0,.381.076Zm80.607-50.034a6.794,6.794,0,0,0,1.679-2.438,7.631,7.631,0,0,0,.993-2.973l-0.458.305-2.671,5.411Zm-80.836,50.682c-0.152-.229-0.307-0.291-0.457-0.191s-0.153.267,0,.5,0.3,0.294.457,0.191S387.961,253.06,387.809,252.832Zm0.686,0.038a0.275,0.275,0,0,0-.457.305A0.275,0.275,0,0,0,388.5,252.87Zm-0.61,1.067-0.229.152,0.61-.075Zm0.38,1.068a0.245,0.245,0,0,0-.381-0.077,0.441,0.441,0,0,0-.191.457c0.024,0.206.113,0.255,0.267,0.153C388.264,255.336,388.368,255.158,388.265,255.005Zm79.77-51.788,0.076-.381-0.228.152-0.077.381Zm-80.3,53.464c-0.052.256,0,.331,0.152,0.229l0.381,0.077c-0.2-.3-0.383-0.406-0.533-0.306h0ZM464.3,210a7.71,7.71,0,0,0,2.251-2.819,8.672,8.672,0,0,0,1.184-3.43l-0.458.305-2.9,5.563Zm-76.338,49.5,0.153,0.229,0.381,0.076,0.229-.152Zm0.305,0.953c-0.152-.229-0.307-0.291-0.457-0.191s-0.153.267,0,.5,0.3,0.293.458,0.191S388.414,260.684,388.262,260.455Zm75.5-49.77c0.1,0.154.188,0.2,0.267,0.153s0.064-.152-0.038-0.305ZM388.3,261.256c-0.024-.2-0.116-0.253-0.266-0.153-0.308.2-.405,0.383-0.306,0.533a0.243,0.243,0,0,0,.382.077A0.442,0.442,0,0,0,388.3,261.256Zm75.614-49.351a1.118,1.118,0,0,1-.228-0.839l-0.229.152a0.487,0.487,0,0,0-.153.763Zm-75.8,49.808a0.246,0.246,0,0,0-.382-0.077A0.275,0.275,0,1,0,388.109,261.713Zm71.531-43.331,0.229-.153a6.827,6.827,0,0,0,2.1-2.552,12.335,12.335,0,0,0,1.26-3.315l-0.458.3-2.976,4.954Zm-71.684,44.093c0.1,0.154.188,0.2,0.266,0.153s0.167,0,.267.152l0.229-.152Zm76.109-50.341a0.274,0.274,0,1,0-.457.3A0.274,0.274,0,1,0,464.065,212.134Zm-75.881,50.684c-0.152-.229-0.307-0.291-0.457-0.191s-0.153.267,0,.5,0.3,0.293.457,0.191S388.336,263.047,388.184,262.818Zm0.19,1.525q-0.115-.418-0.572-0.115c-0.154.1-.153,0.267,0,0.5s0.3,0.293.457,0.191A0.483,0.483,0,0,0,388.374,264.343Zm0.61-.076c-0.078-.279-0.193-0.367-0.343-0.267-0.308.2-.382,0.419-0.229,0.648s0.3,0.293.457,0.191A0.483,0.483,0,0,0,388.984,264.267Zm-0.573.876a0.275,0.275,0,0,0-.457.305A0.275,0.275,0,1,0,388.411,265.143Zm0,0.5c-0.05-.075-0.155-0.062-0.305.038s-0.2.191-.152,0.266,0.151,0.065.3-.037S388.463,265.717,388.411,265.639Zm0.534-.19a0.275,0.275,0,0,0-.458.3A0.275,0.275,0,1,0,388.945,265.449Zm63.522-35.027a12.677,12.677,0,0,0,4.234-5.3q1.716-3.618,2.863-6.363l-0.458.305q-1.756,2.824-3.434,5.753t-3.434,5.753Zm-63.98,35.827c-0.152-.229-0.307-0.291-0.457-0.191s-0.153.267,0,.5,0.3,0.294.458,0.191S388.639,266.478,388.487,266.249Zm-0.229.648-0.229.152,0.152,0.229,0.381,0.076a0.243,0.243,0,0,0,.382.077Zm0.076,0.609a0.275,0.275,0,0,0-.458.305,0.242,0.242,0,0,0,.381.077A0.245,0.245,0,0,0,388.334,267.506Zm0.075,1.6,0.076-.381-0.152-.229-0.152-.228,0.076,0.61Zm-0.077.381c-0.153.1-.2,0.192-0.152,0.267s0.151,0.065.305-.038Zm0.152,0.725c-0.05-.075-0.154-0.062-0.3.038l0.152,0.228C388.482,270.38,388.537,270.291,388.484,270.213Zm0.725-.152c-0.077-.279-0.193-0.367-0.343-0.267-0.308.2-.382,0.419-0.229,0.648s0.3,0.293.457,0.19A0.482,0.482,0,0,0,389.209,270.061Zm-0.649.762c-0.152-.229-0.307-0.291-0.457-0.191s-0.153.267,0,.5,0.3,0.293.457,0.191S388.713,271.051,388.56,270.823Zm0.076,0.61c-0.05-.076-0.155-0.062-0.305.037s-0.2.192-.152,0.267,0.151,0.065.305-.038S388.689,271.511,388.636,271.433Zm0,0.5a0.275,0.275,0,0,0-.458.305A0.275,0.275,0,0,0,388.636,271.928Zm-0.154,1.753,0.077-.381,0.076-.381a0.8,0.8,0,0,0-.305.533Zm63.069-41.659a1.581,1.581,0,0,0,.611-1.067l-0.229.153a1.578,1.578,0,0,0-.611,1.066Zm-62.84,42c-0.05-.075-0.155-0.062-0.305.038a0.243,0.243,0,0,0-.077.381c0.1,0.154.178,0.1,0.229-.152C388.708,274.191,388.763,274.1,388.711,274.024Zm-0.077.877c-0.254-.048-0.329,0-0.229.152a0.242,0.242,0,0,0,.381.077Zm0.839-.228a0.275,0.275,0,1,0-.458.305A0.275,0.275,0,0,0,389.473,274.673Zm-0.763,1.333c-0.05-.075,0-0.164.152-0.266l-0.152-.229c-0.154.1-.2,0.192-0.153,0.267s0,0.166-.152.266l0.152,0.229C388.707,276.173,388.762,276.085,388.71,276.006Zm0.228,0.839c-0.05-.075-0.155-0.062-0.305.038l0.152,0.229C388.935,277.012,388.99,276.924,388.938,276.845Zm-0.229.648,0.152,0.229,0.61-.076Zm0.38,0.572c-0.152-.229-0.307-0.291-0.457-0.191s-0.152.267,0,.5,0.3,0.293.457,0.19S389.242,278.294,389.089,278.065Zm-0.076.381c-0.152-.229-0.307-0.291-0.457-0.191a0.474,0.474,0,0,0-.115.572c0.074,0.281.189,0.369,0.343,0.267C389.088,278.892,389.165,278.675,389.013,278.446Zm0.3,0.953-0.381-.076-0.229.152Zm-0.229,1.143-0.381-.076,0.152,0.229,0.61-.076a0.245,0.245,0,0,0-.381-0.077h0Zm0.228,0.839a0.245,0.245,0,0,0-.381-0.076,0.441,0.441,0,0,0-.191.457c0.024,0.206.113,0.255,0.267,0.153C389.315,281.712,389.418,281.535,389.316,281.381Zm-0.534.686,0.305,0.457q0.151-.759-0.305-0.457h0Zm0.457,0.686a0.275,0.275,0,0,0-.458.305A0.275,0.275,0,0,0,389.239,282.753Zm0.8-.533c-0.025-.2-0.192-0.2-0.5,0a0.244,0.244,0,0,0-.076.381,0.241,0.241,0,0,0,.381.076A0.445,0.445,0,0,0,390.04,282.22Zm-0.725,1.143a0.275,0.275,0,0,0-.458.305A0.275,0.275,0,0,0,389.315,283.363Zm-0.077.381a0.275,0.275,0,0,0-.457.3A0.275,0.275,0,1,0,389.238,283.744Zm0.687-.457a0.275,0.275,0,0,0-.458.305,0.241,0.241,0,0,0,.381.076A0.244,0.244,0,0,0,389.925,283.287Zm-0.383,1.906-0.381-.077-0.228.153Zm-0.076.876c-0.153-.228-0.307-0.29-0.458-0.19s-0.152.266,0,.5,0.3,0.293.457,0.191S389.618,286.3,389.466,286.069Zm-0.229.648c-0.254-.048-0.329,0-0.229.153a0.242,0.242,0,0,0,.381.076Zm0.3,0.458a0.245,0.245,0,0,0-.381-0.077,0.442,0.442,0,0,0-.191.458c0.024,0.206.188,0.205,0.5,0A0.243,0.243,0,0,0,389.541,287.175Zm-0.153.762-0.229.152a0.781,0.781,0,0,0,.534.306l0.229-.153a0.814,0.814,0,0,0-.534-0.305h0Zm0,0.5c-0.152-.228-0.307-0.29-0.457-0.19s-0.153.266,0,.5,0.3,0.293.458,0.191S389.54,288.661,389.388,288.432Zm0.228,0.839c-0.05-.075-0.155-0.062-0.305.038s-0.2.192-.152,0.267,0.151,0.064.3-.038S389.668,289.35,389.616,289.271Zm0.114,1.411c-0.025-.2-0.117-0.253-0.267-0.153-0.308.2-.405,0.383-0.305,0.533a0.242,0.242,0,0,0,.381.077A0.445,0.445,0,0,0,389.73,290.682Zm-0.191.457a0.275,0.275,0,0,0-.458.3A0.275,0.275,0,1,0,389.539,291.139Zm0.3,1.448a0.275,0.275,0,0,0-.458.305A0.275,0.275,0,0,0,389.843,292.587Zm0,1.487c-0.152-.229-0.307-0.291-0.457-0.191s-0.153.267,0,.5,0.3,0.293.458,0.19S389.994,294.3,389.842,294.074Zm0,0.5a0.275,0.275,0,0,0-.458.305,0.241,0.241,0,0,0,.381.076A0.244,0.244,0,0,0,389.842,294.569Zm0,0.991c-0.1.512,0.076,0.61,0.533,0.306a0.81,0.81,0,0,0-.533-0.306h0Zm0.266,1.144c-0.025-.2-0.117-0.253-0.267-0.153-0.307.2-.4,0.384-0.3,0.534a0.241,0.241,0,0,0,.381.076A0.443,0.443,0,0,0,390.107,296.7Zm-0.039.686a0.275,0.275,0,1,0-.457.305A0.275,0.275,0,1,0,390.068,297.39Zm-0.077,1.372c-0.153.1-.2,0.192-0.152,0.267s0.151,0.064.305-.038Zm0.343,1.258c-0.129-.023-0.217.093-0.267,0.343l0.152,0.229,0.229-.152C390.5,300.189,390.461,300.049,390.334,300.02Zm0.037,0.8a0.274,0.274,0,1,0-.457.3A0.274,0.274,0,1,0,390.371,300.821Zm0.152,1.219-0.229.153,0.61-.076Zm-29.21,21.1c-0.051.256,0,.331,0.153,0.229a0.243,0.243,0,0,0,.076-0.381Zm0.687-.457c-0.052.256,0.152,0.229,0.61-.076s0.557-.479.305-0.533Zm5.338-2.893,0.61-.076-0.077.381-0.229.152Zm1.067-.381,0.229-.152,0.229-.152a2.337,2.337,0,0,1,.648-0.267,2.959,2.959,0,0,0,.877-0.418l0.915-.61,0.381,0.077-2.9,1.6Zm20.972-13.632c0.3-.2.431-0.174,0.381,0.076l0.305,0.458a25.241,25.241,0,0,1-2.822,2.209l-2.974,1.98-2.174,1.447L379.005,314c-1.069.711-2.047,1.311-2.936,1.789a3.672,3.672,0,0,1-1.716.647l-1.067.381,1.068-1.372ZM372.142,317.58a0.243,0.243,0,0,1,.076-0.381c0.3-.2.471-0.2,0.5,0a0.446,0.446,0,0,1-.191.458A0.242,0.242,0,0,1,372.142,317.58Zm20.273,6.645a0.785,0.785,0,0,0,.533.3c0.1-.506-0.075-0.61-0.533-0.3h0Zm0.685,1.525a0.243,0.243,0,0,0-.381-0.077,0.437,0.437,0,0,0-.191.458c0.021,0.2.188,0.205,0.5,0A0.245,0.245,0,0,0,393.1,325.75Zm0.379,3.049a0.275,0.275,0,1,0-.076.381A0.244,0.244,0,0,0,393.479,328.8Zm0.228,1.83a0.275,0.275,0,1,0-.077.381A0.243,0.243,0,0,0,393.707,330.629Zm0.342,1.753c-0.027-.2-0.117-0.252-0.267-0.152a0.435,0.435,0,0,0-.191.457c0.022,0.2.113,0.255,0.267,0.153A0.452,0.452,0,0,0,394.049,332.382Zm-0.5,1.982c-0.154.1-.1,0.178,0.152,0.229l0.229-.152c-0.2-.308-0.333-0.33-0.381-0.077h0Zm-0.076.381c-0.154.1-.2,0.188-0.153,0.267s0.151,0.064.305-.038Zm-0.153.763,0.152,0.228c0.1,0.15.188,0.2,0.267,0.153s0.164,0,.266.153Zm1.029-.19c-0.077-.279-0.193-0.367-0.343-0.267a0.472,0.472,0,0,0-.115.571c0.074,0.281.19,0.37,0.343,0.267A0.48,0.48,0,0,0,394.352,335.318Zm-0.115,1.562-0.686-.534,0.076,0.61,0.152,0.229Zm-0.23,2.135a1.566,1.566,0,0,0,0-.991l-0.3-.458a0.977,0.977,0,0,1-.039.686c-0.079.052-.014,0.226,0.19,0.534Zm0.228,0.343c-0.052-.079-0.155-0.062-0.305.038l0.153,0.228C394.233,339.524,394.285,339.433,394.235,339.358Zm0.076,1.105-0.153-.229c-0.256-.051-0.331,0-0.228.153a0.244,0.244,0,0,0,.381.076h0Zm-0.077.381c-0.154.1-.2,0.188-0.152,0.267s0.151,0.064.305-.038Zm-0.153.762,0.305,0.458a0.348,0.348,0,0,0-.305-0.458h0Zm0.533,0.8c-0.052-.078-0.154-0.062-0.3.038l0.153,0.229C394.612,342.574,394.664,342.482,394.614,342.407Zm-0.076.877-0.153-.229a0.242,0.242,0,0,0-.076.381c0.1,0.15.175,0.1,0.229-.152h0Zm0.075,0.61c-0.256-.052-0.331,0-0.228.152a0.243,0.243,0,0,0,.381.076Zm0.152,0.724c-0.052-.079-0.154-0.062-0.3.038l0.152,0.229C394.763,344.785,394.815,344.693,394.765,344.618Zm-0.229.648,0.153,0.229,0.152,0.228a0.347,0.347,0,0,0-.305-0.457h0Zm0.61,0.915a0.275,0.275,0,1,0-.077.381A0.244,0.244,0,0,0,395.146,346.181Zm0.19,1.029c-0.078-.279-0.193-0.367-0.343-0.267a0.474,0.474,0,0,0-.115.572c0.074,0.281.189,0.369,0.343,0.267A0.483,0.483,0,0,0,395.336,347.21Zm-0.115.572a0.275,0.275,0,1,0-.077.381A0.243,0.243,0,0,0,395.221,347.782Zm0.3,0.953c-0.152-.229-0.307-0.291-0.457-0.191s-0.153.267,0,.5,0.3,0.293.457,0.19S395.678,348.964,395.525,348.735Zm-0.076.381c-0.153-.229-0.307-0.291-0.457-0.191s-0.153.267,0,.5,0.3,0.293.457,0.191S395.6,349.345,395.449,349.116Zm0.19,1.029c-0.028-.2-0.117-0.252-0.267-0.152a0.435,0.435,0,0,0-.191.457c0.021,0.2.113,0.255,0.267,0.153A0.452,0.452,0,0,0,395.639,350.145Zm0.189,1.525a0.275,0.275,0,1,0-.076.381A0.243,0.243,0,0,0,395.828,351.67Zm0.305,0.953c-0.153-.229-0.307-0.291-0.458-0.191s-0.152.267,0,.5,0.3,0.293.457,0.191S396.285,352.852,396.133,352.623Zm1.517,11.7a0.275,0.275,0,1,0-.076.382A0.244,0.244,0,0,0,397.65,364.325Zm1.709,10.255q-0.115-.418-0.572-0.115c-0.154.1-.152,0.267,0,0.5s0.3,0.294.457,0.191A0.48,0.48,0,0,0,399.359,374.58Zm1.86,12.464a12.2,12.2,0,0,0-.683-4.5,3.35,3.35,0,0,0,.036,2.287,14.08,14.08,0,0,1,.494,1.983Zm0.38,1.068-0.229.152,0.382,0.077Zm0.343,1.258c-0.078-.279-0.193-0.367-0.343-0.267a0.474,0.474,0,0,0-.115.572c0.074,0.281.189,0.369,0.343,0.267A0.483,0.483,0,0,0,401.942,389.37Zm0.418,1.372c-0.152-.228-0.307-0.29-0.457-0.19s-0.153.266,0,.5,0.3,0.293.458,0.191S402.512,390.971,402.36,390.742Z"/>
</svg>
