<svg width="40" height="40" viewBox="0 0 40 40" fill="none" xmlns="http://www.w3.org/2000/svg">
<path d="M20 0C8.95433 0 0 8.95433 0 20C0 31.0457 8.95433 40 20 40C31.0457 40 40 31.0457 40 20C40 8.95433 31.0457 0 20 0ZM29.6176 19.9584C28.599 22.1953 26.5072 23.0313 23.1289 23.3779C24.224 24.0662 24.5386 24.9305 24.5386 27.2692C24.5386 29.6079 24.5063 29.922 24.5142 30.4593C24.5262 31.342 25.8208 31.7648 25.7718 32.0491C25.7226 32.3319 24.6895 32.2873 24.2056 32.1175C22.835 31.6415 22.9722 30.5024 22.9722 30.5024L22.9269 27.3748C22.9269 27.3748 23.0207 25.6927 22.3977 25.6927V30.8107C22.3977 31.9224 23.1772 32.2597 23.1772 32.6706C23.1772 33.3783 21.7544 32.6037 21.3153 32.1629C20.647 31.4923 20.7235 30.0699 20.7394 28.9452C20.7551 27.8586 20.7296 25.4828 20.7296 25.4828L20.2762 25.4921C20.2762 25.4921 20.4622 30.6822 20.0372 31.6276C19.487 32.842 17.8275 33.2606 17.8275 32.7067C17.8275 32.3346 18.2359 32.4528 18.4624 31.6193C18.6549 30.9097 18.5891 25.6193 18.5891 25.6193C18.5891 25.6193 18.0577 25.9335 18.0577 26.9241C18.0577 27.3774 18.045 29.9692 18.045 30.7394C18.045 31.7093 16.6667 32.2624 16.0041 32.2624C15.6692 32.2624 15.2513 32.2457 15.2513 32.0682C15.2513 31.6193 16.5121 31.3567 16.5121 30.4225C16.5121 29.6132 16.495 27.5314 16.495 27.5314C15.9845 27.6076 15.4689 27.6442 14.9528 27.641C12.6672 27.641 11.9445 26.1837 11.6001 25.3688C11.153 24.3066 10.5731 23.8074 9.95609 23.4089C9.57758 23.1635 9.49098 22.8746 9.92819 22.7926C11.9511 22.4112 12.4682 25.0845 13.8194 25.5112C14.7832 25.8148 16.0234 25.6829 16.64 25.2848C16.7218 24.4689 17.3109 23.762 17.8014 23.3897C14.3648 23.0606 12.328 21.8683 11.2712 19.951C11.2577 19.951 10.7737 18.9091 10.814 18.9091C10.4837 17.9364 10.337 16.8221 10.3362 15.5756C10.3362 13.3659 11.0257 12.5325 11.9505 11.354C11.2435 8.83414 12.2045 7.11209 12.2045 7.11209C12.2045 7.11209 13.6921 6.80372 16.5033 8.81581C18.0271 8.16335 22.0903 8.10986 24.0113 8.67107C25.1911 7.89247 27.3489 6.78679 28.2197 7.09619C28.4554 7.47572 28.9633 8.58019 28.5285 11.01C28.8235 11.5425 30.3596 12.677 30.3652 15.8863C30.3421 17.0693 30.2176 18.0685 29.9892 18.9131C30.0331 18.9136 29.6967 19.9601 29.6176 19.9584Z" fill="#9F8552"/>
</svg>
