<svg width="25" height="12" viewBox="0 0 25 12" fill="none" xmlns="http://www.w3.org/2000/svg">
<path d="M1.08121 6.96774H21.576L18.1809 10.3463C17.8021 10.7234 17.8007 11.3361 18.1777 11.7149C18.5547 12.0938 19.1675 12.0952 19.5463 11.7182L24.603 6.68594C24.6033 6.68565 24.6035 6.68531 24.6038 6.68502C24.9817 6.30798 24.9829 5.69327 24.6039 5.31498C24.6036 5.31469 24.6034 5.31435 24.6031 5.31406L19.5464 0.281804C19.1676 -0.0951322 18.5549 -0.0938261 18.1778 0.285094C17.8008 0.663916 17.8022 1.27664 18.181 1.65367L21.576 5.03226H1.08121C0.546726 5.03226 0.113468 5.46552 0.113468 6C0.113468 6.53448 0.546726 6.96774 1.08121 6.96774Z" fill="white"/>
</svg>
