<svg width="40" height="40" viewBox="0 0 40 40" fill="none" xmlns="http://www.w3.org/2000/svg">
<g clip-path="url(#clip0_2221_490)">
<path fill-rule="evenodd" clip-rule="evenodd" d="M20 0C31.0457 0 40 8.9543 40 20C40 31.0457 31.0457 40 20 40C8.9543 40 0 31.0457 0 20C0 8.9543 8.9543 0 20 0ZM32.6953 27.7532V12.8889L25.2627 20.321L32.6953 27.7532ZM8.8925 28.056H31.108L24.3183 21.2663L21.7305 23.8537C21.6051 23.9788 21.4351 24.049 21.2579 24.049H18.7423C18.6545 24.0491 18.5676 24.0319 18.4865 23.9984C18.4054 23.9648 18.3316 23.9157 18.2695 23.8537L15.6819 21.2663L8.89219 28.056H8.8925ZM7.30469 12.8884V27.7536L14.7373 20.321L7.30469 12.8884ZM31.7505 11.944H8.25L19.0191 22.713H20.9813L31.7505 11.944Z" fill="#9F8552"/>
</g>
<defs>
<clipPath id="clip0_2221_490">
<rect width="40" height="40" fill="white"/>
</clipPath>
</defs>
</svg>
