<svg width="40" height="40" viewBox="0 0 40 40" fill="none" xmlns="http://www.w3.org/2000/svg">
<g clip-path="url(#clip0_2224_1454)">
<path d="M9.8916 30.0947H30.1091V17.2109H9.8916V30.0947ZM23.1504 20.0009H26.1629V23.0122H23.1504V20.0009ZM23.1504 24.6584H26.1629V27.6697H23.1504V24.6584ZM18.4941 20.0009H21.5079V23.0122H18.4941V20.0009ZM18.4929 24.6584H21.5066V27.6697H18.4929V24.6584ZM13.8379 24.6584H16.8504V27.6697H13.8379V24.6584Z" fill="#9F8552"/>
<path d="M20 0C8.9525 0 0 8.95375 0 20C0 31.0475 8.9525 40 20 40C31.0462 40 40 31.0475 40 20C40 8.95375 31.0462 0 20 0ZM31.5037 32.3938H8.49625V9.38625H10.9413V7.60625H11.9062V9.38625H15.2275V7.60625H16.1937V9.38625H19.515V7.60625H20.4813V9.38625H23.8025V7.60625H24.7675V9.38625H28.09V7.60625H29.0538V9.38625H31.5V32.3938H31.5037Z" fill="#9F8552"/>
</g>
<defs>
<clipPath id="clip0_2224_1454">
<rect width="40" height="40" fill="white"/>
</clipPath>
</defs>
</svg>
